<mxfile host="app.diagrams.net" agent="Mozilla/5.0 (Macintosh; Intel Mac OS X 10_15_7) AppleWebKit/605.1.15 (KHTML, like Gecko) Version/17.5 Safari/605.1.15" version="26.0.10">
  <diagram name="Page-1" id="Q_kMsOYWBfaB07XPrnpn">
    <mxGraphModel dx="3387" dy="944" grid="1" gridSize="10" guides="1" tooltips="1" connect="1" arrows="1" fold="1" page="1" pageScale="1" pageWidth="850" pageHeight="1100" math="0" shadow="0">
      <root>
        <mxCell id="0" />
        <mxCell id="1" parent="0" />
        <mxCell id="QqzyqbhZqChSag3ZliqI-244" value="" style="endArrow=classic;startArrow=classic;html=1;rounded=0;entryX=0.5;entryY=1;entryDx=0;entryDy=0;exitX=0.5;exitY=0;exitDx=0;exitDy=0;" parent="1" source="QqzyqbhZqChSag3ZliqI-240" target="QqzyqbhZqChSag3ZliqI-68" edge="1">
          <mxGeometry width="50" height="50" relative="1" as="geometry">
            <mxPoint x="930" y="880" as="sourcePoint" />
            <mxPoint x="705" y="803" as="targetPoint" />
            <Array as="points" />
          </mxGeometry>
        </mxCell>
        <mxCell id="QqzyqbhZqChSag3ZliqI-1" value="deployClients" style="swimlane;fontStyle=0;childLayout=stackLayout;horizontal=1;startSize=30;horizontalStack=0;resizeParent=1;resizeParentMax=0;resizeLast=0;collapsible=1;marginBottom=0;whiteSpace=wrap;html=1;fontSize=14;" parent="1" vertex="1">
          <mxGeometry x="-230" y="80" width="140" height="330" as="geometry" />
        </mxCell>
        <mxCell id="QqzyqbhZqChSag3ZliqI-2" value="clientID" style="text;strokeColor=none;fillColor=none;align=left;verticalAlign=middle;spacingLeft=4;spacingRight=4;overflow=hidden;points=[[0,0.5],[1,0.5]];portConstraint=eastwest;rotatable=0;whiteSpace=wrap;html=1;fontStyle=4" parent="QqzyqbhZqChSag3ZliqI-1" vertex="1">
          <mxGeometry y="30" width="140" height="30" as="geometry" />
        </mxCell>
        <mxCell id="QqzyqbhZqChSag3ZliqI-3" value="clientName" style="text;strokeColor=none;fillColor=none;align=left;verticalAlign=middle;spacingLeft=4;spacingRight=4;overflow=hidden;points=[[0,0.5],[1,0.5]];portConstraint=eastwest;rotatable=0;whiteSpace=wrap;html=1;" parent="QqzyqbhZqChSag3ZliqI-1" vertex="1">
          <mxGeometry y="60" width="140" height="30" as="geometry" />
        </mxCell>
        <mxCell id="QqzyqbhZqChSag3ZliqI-4" value="clientState" style="text;strokeColor=none;fillColor=none;align=left;verticalAlign=middle;spacingLeft=4;spacingRight=4;overflow=hidden;points=[[0,0.5],[1,0.5]];portConstraint=eastwest;rotatable=0;whiteSpace=wrap;html=1;" parent="QqzyqbhZqChSag3ZliqI-1" vertex="1">
          <mxGeometry y="90" width="140" height="30" as="geometry" />
        </mxCell>
        <mxCell id="QqzyqbhZqChSag3ZliqI-31" value="clientTimeZone" style="text;strokeColor=none;fillColor=none;align=left;verticalAlign=middle;spacingLeft=4;spacingRight=4;overflow=hidden;points=[[0,0.5],[1,0.5]];portConstraint=eastwest;rotatable=0;whiteSpace=wrap;html=1;" parent="QqzyqbhZqChSag3ZliqI-1" vertex="1">
          <mxGeometry y="120" width="140" height="30" as="geometry" />
        </mxCell>
        <mxCell id="QqzyqbhZqChSag3ZliqI-32" value="status" style="text;strokeColor=none;fillColor=none;align=left;verticalAlign=middle;spacingLeft=4;spacingRight=4;overflow=hidden;points=[[0,0.5],[1,0.5]];portConstraint=eastwest;rotatable=0;whiteSpace=wrap;html=1;" parent="QqzyqbhZqChSag3ZliqI-1" vertex="1">
          <mxGeometry y="150" width="140" height="30" as="geometry" />
        </mxCell>
        <mxCell id="QqzyqbhZqChSag3ZliqI-33" value="cdate" style="text;strokeColor=none;fillColor=none;align=left;verticalAlign=middle;spacingLeft=4;spacingRight=4;overflow=hidden;points=[[0,0.5],[1,0.5]];portConstraint=eastwest;rotatable=0;whiteSpace=wrap;html=1;" parent="QqzyqbhZqChSag3ZliqI-1" vertex="1">
          <mxGeometry y="180" width="140" height="30" as="geometry" />
        </mxCell>
        <mxCell id="QqzyqbhZqChSag3ZliqI-34" value="cuser" style="text;strokeColor=none;fillColor=none;align=left;verticalAlign=middle;spacingLeft=4;spacingRight=4;overflow=hidden;points=[[0,0.5],[1,0.5]];portConstraint=eastwest;rotatable=0;whiteSpace=wrap;html=1;" parent="QqzyqbhZqChSag3ZliqI-1" vertex="1">
          <mxGeometry y="210" width="140" height="30" as="geometry" />
        </mxCell>
        <mxCell id="QqzyqbhZqChSag3ZliqI-35" value="APILocation" style="text;strokeColor=none;fillColor=none;align=left;verticalAlign=middle;spacingLeft=4;spacingRight=4;overflow=hidden;points=[[0,0.5],[1,0.5]];portConstraint=eastwest;rotatable=0;whiteSpace=wrap;html=1;" parent="QqzyqbhZqChSag3ZliqI-1" vertex="1">
          <mxGeometry y="240" width="140" height="30" as="geometry" />
        </mxCell>
        <mxCell id="QqzyqbhZqChSag3ZliqI-36" value="muser" style="text;strokeColor=none;fillColor=none;align=left;verticalAlign=middle;spacingLeft=4;spacingRight=4;overflow=hidden;points=[[0,0.5],[1,0.5]];portConstraint=eastwest;rotatable=0;whiteSpace=wrap;html=1;" parent="QqzyqbhZqChSag3ZliqI-1" vertex="1">
          <mxGeometry y="270" width="140" height="30" as="geometry" />
        </mxCell>
        <mxCell id="QqzyqbhZqChSag3ZliqI-37" value="mdate" style="text;strokeColor=none;fillColor=none;align=left;verticalAlign=middle;spacingLeft=4;spacingRight=4;overflow=hidden;points=[[0,0.5],[1,0.5]];portConstraint=eastwest;rotatable=0;whiteSpace=wrap;html=1;" parent="QqzyqbhZqChSag3ZliqI-1" vertex="1">
          <mxGeometry y="300" width="140" height="30" as="geometry" />
        </mxCell>
        <mxCell id="QqzyqbhZqChSag3ZliqI-7" value="deployPrograms" style="swimlane;fontStyle=0;childLayout=stackLayout;horizontal=1;startSize=30;horizontalStack=0;resizeParent=1;resizeParentMax=0;resizeLast=0;collapsible=1;marginBottom=0;whiteSpace=wrap;html=1;fontSize=14;" parent="1" vertex="1">
          <mxGeometry x="730" y="50" width="140" height="240" as="geometry" />
        </mxCell>
        <mxCell id="QqzyqbhZqChSag3ZliqI-8" value="&lt;u&gt;programID&lt;/u&gt;" style="text;strokeColor=none;fillColor=none;align=left;verticalAlign=middle;spacingLeft=4;spacingRight=4;overflow=hidden;points=[[0,0.5],[1,0.5]];portConstraint=eastwest;rotatable=0;whiteSpace=wrap;html=1;" parent="QqzyqbhZqChSag3ZliqI-7" vertex="1">
          <mxGeometry y="30" width="140" height="30" as="geometry" />
        </mxCell>
        <mxCell id="QqzyqbhZqChSag3ZliqI-9" value="programName" style="text;strokeColor=none;fillColor=none;align=left;verticalAlign=middle;spacingLeft=4;spacingRight=4;overflow=hidden;points=[[0,0.5],[1,0.5]];portConstraint=eastwest;rotatable=0;whiteSpace=wrap;html=1;" parent="QqzyqbhZqChSag3ZliqI-7" vertex="1">
          <mxGeometry y="60" width="140" height="30" as="geometry" />
        </mxCell>
        <mxCell id="QqzyqbhZqChSag3ZliqI-10" value="cdate" style="text;strokeColor=none;fillColor=none;align=left;verticalAlign=middle;spacingLeft=4;spacingRight=4;overflow=hidden;points=[[0,0.5],[1,0.5]];portConstraint=eastwest;rotatable=0;whiteSpace=wrap;html=1;" parent="QqzyqbhZqChSag3ZliqI-7" vertex="1">
          <mxGeometry y="90" width="140" height="30" as="geometry" />
        </mxCell>
        <mxCell id="QqzyqbhZqChSag3ZliqI-38" value="cuser" style="text;strokeColor=none;fillColor=none;align=left;verticalAlign=middle;spacingLeft=4;spacingRight=4;overflow=hidden;points=[[0,0.5],[1,0.5]];portConstraint=eastwest;rotatable=0;whiteSpace=wrap;html=1;" parent="QqzyqbhZqChSag3ZliqI-7" vertex="1">
          <mxGeometry y="120" width="140" height="30" as="geometry" />
        </mxCell>
        <mxCell id="QqzyqbhZqChSag3ZliqI-39" value="status" style="text;strokeColor=none;fillColor=none;align=left;verticalAlign=middle;spacingLeft=4;spacingRight=4;overflow=hidden;points=[[0,0.5],[1,0.5]];portConstraint=eastwest;rotatable=0;whiteSpace=wrap;html=1;" parent="QqzyqbhZqChSag3ZliqI-7" vertex="1">
          <mxGeometry y="150" width="140" height="30" as="geometry" />
        </mxCell>
        <mxCell id="QqzyqbhZqChSag3ZliqI-40" value="mdate" style="text;strokeColor=none;fillColor=none;align=left;verticalAlign=middle;spacingLeft=4;spacingRight=4;overflow=hidden;points=[[0,0.5],[1,0.5]];portConstraint=eastwest;rotatable=0;whiteSpace=wrap;html=1;" parent="QqzyqbhZqChSag3ZliqI-7" vertex="1">
          <mxGeometry y="180" width="140" height="30" as="geometry" />
        </mxCell>
        <mxCell id="QqzyqbhZqChSag3ZliqI-41" value="muser" style="text;strokeColor=none;fillColor=none;align=left;verticalAlign=middle;spacingLeft=4;spacingRight=4;overflow=hidden;points=[[0,0.5],[1,0.5]];portConstraint=eastwest;rotatable=0;whiteSpace=wrap;html=1;" parent="QqzyqbhZqChSag3ZliqI-7" vertex="1">
          <mxGeometry y="210" width="140" height="30" as="geometry" />
        </mxCell>
        <mxCell id="QqzyqbhZqChSag3ZliqI-15" value="deployClientPrograms" style="swimlane;fontStyle=0;childLayout=stackLayout;horizontal=1;startSize=30;horizontalStack=0;resizeParent=1;resizeParentMax=0;resizeLast=0;collapsible=1;marginBottom=0;whiteSpace=wrap;html=1;fontSize=14;" parent="1" vertex="1">
          <mxGeometry x="210" y="50" width="160" height="390" as="geometry" />
        </mxCell>
        <mxCell id="QqzyqbhZqChSag3ZliqI-16" value="programID" style="text;strokeColor=none;fillColor=none;align=left;verticalAlign=middle;spacingLeft=4;spacingRight=4;overflow=hidden;points=[[0,0.5],[1,0.5]];portConstraint=eastwest;rotatable=0;whiteSpace=wrap;html=1;fontStyle=4" parent="QqzyqbhZqChSag3ZliqI-15" vertex="1">
          <mxGeometry y="30" width="160" height="30" as="geometry" />
        </mxCell>
        <mxCell id="QqzyqbhZqChSag3ZliqI-17" value="clientID" style="text;strokeColor=none;fillColor=none;align=left;verticalAlign=middle;spacingLeft=4;spacingRight=4;overflow=hidden;points=[[0,0.5],[1,0.5]];portConstraint=eastwest;rotatable=0;whiteSpace=wrap;html=1;fontStyle=4" parent="QqzyqbhZqChSag3ZliqI-15" vertex="1">
          <mxGeometry y="60" width="160" height="30" as="geometry" />
        </mxCell>
        <mxCell id="QqzyqbhZqChSag3ZliqI-18" value="programVersion" style="text;strokeColor=none;fillColor=none;align=left;verticalAlign=middle;spacingLeft=4;spacingRight=4;overflow=hidden;points=[[0,0.5],[1,0.5]];portConstraint=eastwest;rotatable=0;whiteSpace=wrap;html=1;" parent="QqzyqbhZqChSag3ZliqI-15" vertex="1">
          <mxGeometry y="90" width="160" height="30" as="geometry" />
        </mxCell>
        <mxCell id="QqzyqbhZqChSag3ZliqI-42" value="mainURL" style="text;strokeColor=none;fillColor=none;align=left;verticalAlign=middle;spacingLeft=4;spacingRight=4;overflow=hidden;points=[[0,0.5],[1,0.5]];portConstraint=eastwest;rotatable=0;whiteSpace=wrap;html=1;" parent="QqzyqbhZqChSag3ZliqI-15" vertex="1">
          <mxGeometry y="120" width="160" height="30" as="geometry" />
        </mxCell>
        <mxCell id="QqzyqbhZqChSag3ZliqI-43" value="currentPackage" style="text;strokeColor=none;fillColor=none;align=left;verticalAlign=middle;spacingLeft=4;spacingRight=4;overflow=hidden;points=[[0,0.5],[1,0.5]];portConstraint=eastwest;rotatable=0;whiteSpace=wrap;html=1;" parent="QqzyqbhZqChSag3ZliqI-15" vertex="1">
          <mxGeometry y="150" width="160" height="30" as="geometry" />
        </mxCell>
        <mxCell id="QqzyqbhZqChSag3ZliqI-44" value="cdate" style="text;strokeColor=none;fillColor=none;align=left;verticalAlign=middle;spacingLeft=4;spacingRight=4;overflow=hidden;points=[[0,0.5],[1,0.5]];portConstraint=eastwest;rotatable=0;whiteSpace=wrap;html=1;" parent="QqzyqbhZqChSag3ZliqI-15" vertex="1">
          <mxGeometry y="180" width="160" height="30" as="geometry" />
        </mxCell>
        <mxCell id="QqzyqbhZqChSag3ZliqI-45" value="cuser" style="text;strokeColor=none;fillColor=none;align=left;verticalAlign=middle;spacingLeft=4;spacingRight=4;overflow=hidden;points=[[0,0.5],[1,0.5]];portConstraint=eastwest;rotatable=0;whiteSpace=wrap;html=1;" parent="QqzyqbhZqChSag3ZliqI-15" vertex="1">
          <mxGeometry y="210" width="160" height="30" as="geometry" />
        </mxCell>
        <mxCell id="QqzyqbhZqChSag3ZliqI-46" value="mdate" style="text;strokeColor=none;fillColor=none;align=left;verticalAlign=middle;spacingLeft=4;spacingRight=4;overflow=hidden;points=[[0,0.5],[1,0.5]];portConstraint=eastwest;rotatable=0;whiteSpace=wrap;html=1;" parent="QqzyqbhZqChSag3ZliqI-15" vertex="1">
          <mxGeometry y="240" width="160" height="30" as="geometry" />
        </mxCell>
        <mxCell id="QqzyqbhZqChSag3ZliqI-47" value="muser" style="text;strokeColor=none;fillColor=none;align=left;verticalAlign=middle;spacingLeft=4;spacingRight=4;overflow=hidden;points=[[0,0.5],[1,0.5]];portConstraint=eastwest;rotatable=0;whiteSpace=wrap;html=1;" parent="QqzyqbhZqChSag3ZliqI-15" vertex="1">
          <mxGeometry y="270" width="160" height="30" as="geometry" />
        </mxCell>
        <mxCell id="QqzyqbhZqChSag3ZliqI-48" value="status" style="text;strokeColor=none;fillColor=none;align=left;verticalAlign=middle;spacingLeft=4;spacingRight=4;overflow=hidden;points=[[0,0.5],[1,0.5]];portConstraint=eastwest;rotatable=0;whiteSpace=wrap;html=1;" parent="QqzyqbhZqChSag3ZliqI-15" vertex="1">
          <mxGeometry y="300" width="160" height="30" as="geometry" />
        </mxCell>
        <mxCell id="QqzyqbhZqChSag3ZliqI-49" value="backupURL" style="text;strokeColor=none;fillColor=none;align=left;verticalAlign=middle;spacingLeft=4;spacingRight=4;overflow=hidden;points=[[0,0.5],[1,0.5]];portConstraint=eastwest;rotatable=0;whiteSpace=wrap;html=1;" parent="QqzyqbhZqChSag3ZliqI-15" vertex="1">
          <mxGeometry y="330" width="160" height="30" as="geometry" />
        </mxCell>
        <mxCell id="QqzyqbhZqChSag3ZliqI-50" value="applicationPool" style="text;strokeColor=none;fillColor=none;align=left;verticalAlign=middle;spacingLeft=4;spacingRight=4;overflow=hidden;points=[[0,0.5],[1,0.5]];portConstraint=eastwest;rotatable=0;whiteSpace=wrap;html=1;" parent="QqzyqbhZqChSag3ZliqI-15" vertex="1">
          <mxGeometry y="360" width="160" height="30" as="geometry" />
        </mxCell>
        <mxCell id="QqzyqbhZqChSag3ZliqI-23" value="deployPackages" style="swimlane;fontStyle=0;childLayout=stackLayout;horizontal=1;startSize=30;horizontalStack=0;resizeParent=1;resizeParentMax=0;resizeLast=0;collapsible=1;marginBottom=0;whiteSpace=wrap;html=1;fontSize=14;" parent="1" vertex="1">
          <mxGeometry x="1275" y="65" width="140" height="240" as="geometry" />
        </mxCell>
        <mxCell id="QqzyqbhZqChSag3ZliqI-24" value="&lt;u&gt;packageID&lt;/u&gt;" style="text;strokeColor=none;fillColor=none;align=left;verticalAlign=middle;spacingLeft=4;spacingRight=4;overflow=hidden;points=[[0,0.5],[1,0.5]];portConstraint=eastwest;rotatable=0;whiteSpace=wrap;html=1;" parent="QqzyqbhZqChSag3ZliqI-23" vertex="1">
          <mxGeometry y="30" width="140" height="30" as="geometry" />
        </mxCell>
        <mxCell id="QqzyqbhZqChSag3ZliqI-25" value="packageName" style="text;strokeColor=none;fillColor=none;align=left;verticalAlign=middle;spacingLeft=4;spacingRight=4;overflow=hidden;points=[[0,0.5],[1,0.5]];portConstraint=eastwest;rotatable=0;whiteSpace=wrap;html=1;" parent="QqzyqbhZqChSag3ZliqI-23" vertex="1">
          <mxGeometry y="60" width="140" height="30" as="geometry" />
        </mxCell>
        <mxCell id="QqzyqbhZqChSag3ZliqI-26" value="cuser" style="text;strokeColor=none;fillColor=none;align=left;verticalAlign=middle;spacingLeft=4;spacingRight=4;overflow=hidden;points=[[0,0.5],[1,0.5]];portConstraint=eastwest;rotatable=0;whiteSpace=wrap;html=1;" parent="QqzyqbhZqChSag3ZliqI-23" vertex="1">
          <mxGeometry y="90" width="140" height="30" as="geometry" />
        </mxCell>
        <mxCell id="QqzyqbhZqChSag3ZliqI-54" value="cdate" style="text;strokeColor=none;fillColor=none;align=left;verticalAlign=middle;spacingLeft=4;spacingRight=4;overflow=hidden;points=[[0,0.5],[1,0.5]];portConstraint=eastwest;rotatable=0;whiteSpace=wrap;html=1;" parent="QqzyqbhZqChSag3ZliqI-23" vertex="1">
          <mxGeometry y="120" width="140" height="30" as="geometry" />
        </mxCell>
        <mxCell id="QqzyqbhZqChSag3ZliqI-55" value="status" style="text;strokeColor=none;fillColor=none;align=left;verticalAlign=middle;spacingLeft=4;spacingRight=4;overflow=hidden;points=[[0,0.5],[1,0.5]];portConstraint=eastwest;rotatable=0;whiteSpace=wrap;html=1;" parent="QqzyqbhZqChSag3ZliqI-23" vertex="1">
          <mxGeometry y="150" width="140" height="30" as="geometry" />
        </mxCell>
        <mxCell id="QqzyqbhZqChSag3ZliqI-56" value="muser" style="text;strokeColor=none;fillColor=none;align=left;verticalAlign=middle;spacingLeft=4;spacingRight=4;overflow=hidden;points=[[0,0.5],[1,0.5]];portConstraint=eastwest;rotatable=0;whiteSpace=wrap;html=1;" parent="QqzyqbhZqChSag3ZliqI-23" vertex="1">
          <mxGeometry y="180" width="140" height="30" as="geometry" />
        </mxCell>
        <mxCell id="QqzyqbhZqChSag3ZliqI-57" value="mdate" style="text;strokeColor=none;fillColor=none;align=left;verticalAlign=middle;spacingLeft=4;spacingRight=4;overflow=hidden;points=[[0,0.5],[1,0.5]];portConstraint=eastwest;rotatable=0;whiteSpace=wrap;html=1;" parent="QqzyqbhZqChSag3ZliqI-23" vertex="1">
          <mxGeometry y="210" width="140" height="30" as="geometry" />
        </mxCell>
        <mxCell id="QqzyqbhZqChSag3ZliqI-27" value="deployPackageFiles" style="swimlane;fontStyle=0;childLayout=stackLayout;horizontal=1;startSize=30;horizontalStack=0;resizeParent=1;resizeParentMax=0;resizeLast=0;collapsible=1;marginBottom=0;whiteSpace=wrap;html=1;fontSize=14;" parent="1" vertex="1">
          <mxGeometry x="1465" y="35" width="140" height="270" as="geometry" />
        </mxCell>
        <mxCell id="QqzyqbhZqChSag3ZliqI-28" value="fileID" style="text;strokeColor=none;fillColor=none;align=left;verticalAlign=middle;spacingLeft=4;spacingRight=4;overflow=hidden;points=[[0,0.5],[1,0.5]];portConstraint=eastwest;rotatable=0;whiteSpace=wrap;html=1;fontStyle=4" parent="QqzyqbhZqChSag3ZliqI-27" vertex="1">
          <mxGeometry y="30" width="140" height="30" as="geometry" />
        </mxCell>
        <mxCell id="QqzyqbhZqChSag3ZliqI-29" value="packageID" style="text;strokeColor=none;fillColor=none;align=left;verticalAlign=middle;spacingLeft=4;spacingRight=4;overflow=hidden;points=[[0,0.5],[1,0.5]];portConstraint=eastwest;rotatable=0;whiteSpace=wrap;html=1;fontStyle=4" parent="QqzyqbhZqChSag3ZliqI-27" vertex="1">
          <mxGeometry y="60" width="140" height="30" as="geometry" />
        </mxCell>
        <mxCell id="QqzyqbhZqChSag3ZliqI-30" value="fileName" style="text;strokeColor=none;fillColor=none;align=left;verticalAlign=middle;spacingLeft=4;spacingRight=4;overflow=hidden;points=[[0,0.5],[1,0.5]];portConstraint=eastwest;rotatable=0;whiteSpace=wrap;html=1;" parent="QqzyqbhZqChSag3ZliqI-27" vertex="1">
          <mxGeometry y="90" width="140" height="30" as="geometry" />
        </mxCell>
        <mxCell id="QqzyqbhZqChSag3ZliqI-58" value="fileSize" style="text;strokeColor=none;fillColor=none;align=left;verticalAlign=middle;spacingLeft=4;spacingRight=4;overflow=hidden;points=[[0,0.5],[1,0.5]];portConstraint=eastwest;rotatable=0;whiteSpace=wrap;html=1;" parent="QqzyqbhZqChSag3ZliqI-27" vertex="1">
          <mxGeometry y="120" width="140" height="30" as="geometry" />
        </mxCell>
        <mxCell id="QqzyqbhZqChSag3ZliqI-59" value="dateCreated" style="text;strokeColor=none;fillColor=none;align=left;verticalAlign=middle;spacingLeft=4;spacingRight=4;overflow=hidden;points=[[0,0.5],[1,0.5]];portConstraint=eastwest;rotatable=0;whiteSpace=wrap;html=1;" parent="QqzyqbhZqChSag3ZliqI-27" vertex="1">
          <mxGeometry y="150" width="140" height="30" as="geometry" />
        </mxCell>
        <mxCell id="QqzyqbhZqChSag3ZliqI-60" value="status" style="text;strokeColor=none;fillColor=none;align=left;verticalAlign=middle;spacingLeft=4;spacingRight=4;overflow=hidden;points=[[0,0.5],[1,0.5]];portConstraint=eastwest;rotatable=0;whiteSpace=wrap;html=1;" parent="QqzyqbhZqChSag3ZliqI-27" vertex="1">
          <mxGeometry y="180" width="140" height="30" as="geometry" />
        </mxCell>
        <mxCell id="QqzyqbhZqChSag3ZliqI-61" value="muser" style="text;strokeColor=none;fillColor=none;align=left;verticalAlign=middle;spacingLeft=4;spacingRight=4;overflow=hidden;points=[[0,0.5],[1,0.5]];portConstraint=eastwest;rotatable=0;whiteSpace=wrap;html=1;" parent="QqzyqbhZqChSag3ZliqI-27" vertex="1">
          <mxGeometry y="210" width="140" height="30" as="geometry" />
        </mxCell>
        <mxCell id="QqzyqbhZqChSag3ZliqI-62" value="mdate" style="text;strokeColor=none;fillColor=none;align=left;verticalAlign=middle;spacingLeft=4;spacingRight=4;overflow=hidden;points=[[0,0.5],[1,0.5]];portConstraint=eastwest;rotatable=0;whiteSpace=wrap;html=1;" parent="QqzyqbhZqChSag3ZliqI-27" vertex="1">
          <mxGeometry y="240" width="140" height="30" as="geometry" />
        </mxCell>
        <mxCell id="QqzyqbhZqChSag3ZliqI-53" value="" style="endArrow=ERone;html=1;rounded=0;exitX=1;exitY=0.5;exitDx=0;exitDy=0;entryX=0;entryY=0.5;entryDx=0;entryDy=0;startArrow=ERmany;startFill=0;endFill=0;" parent="1" source="QqzyqbhZqChSag3ZliqI-16" target="QqzyqbhZqChSag3ZliqI-8" edge="1">
          <mxGeometry width="50" height="50" relative="1" as="geometry">
            <mxPoint x="570" y="130" as="sourcePoint" />
            <mxPoint x="620" y="80" as="targetPoint" />
          </mxGeometry>
        </mxCell>
        <mxCell id="QqzyqbhZqChSag3ZliqI-63" value="" style="endArrow=ERmany;html=1;rounded=0;exitX=1;exitY=0.5;exitDx=0;exitDy=0;entryX=0;entryY=0.5;entryDx=0;entryDy=0;startArrow=ERone;startFill=0;endFill=0;" parent="1" source="QqzyqbhZqChSag3ZliqI-24" target="QqzyqbhZqChSag3ZliqI-29" edge="1">
          <mxGeometry width="50" height="50" relative="1" as="geometry">
            <mxPoint x="1545" y="65" as="sourcePoint" />
            <mxPoint x="1595" y="15" as="targetPoint" />
          </mxGeometry>
        </mxCell>
        <mxCell id="QqzyqbhZqChSag3ZliqI-64" value="" style="endArrow=ERone;html=1;rounded=0;exitX=1;exitY=0.5;exitDx=0;exitDy=0;entryX=0;entryY=0.5;entryDx=0;entryDy=0;startArrow=ERmany;startFill=0;endFill=0;" parent="1" source="QqzyqbhZqChSag3ZliqI-43" target="QqzyqbhZqChSag3ZliqI-25" edge="1">
          <mxGeometry width="50" height="50" relative="1" as="geometry">
            <mxPoint x="560" y="350" as="sourcePoint" />
            <mxPoint x="610" y="300" as="targetPoint" />
            <Array as="points">
              <mxPoint x="650" y="215" />
              <mxPoint x="650" y="10" />
              <mxPoint x="920" y="10" />
              <mxPoint x="920" y="140" />
            </Array>
          </mxGeometry>
        </mxCell>
        <mxCell id="QqzyqbhZqChSag3ZliqI-65" value="" style="endArrow=ERmany;html=1;rounded=0;exitX=1;exitY=0.5;exitDx=0;exitDy=0;entryX=0;entryY=0.5;entryDx=0;entryDy=0;startArrow=ERone;startFill=0;endFill=0;" parent="1" source="QqzyqbhZqChSag3ZliqI-2" target="QqzyqbhZqChSag3ZliqI-17" edge="1">
          <mxGeometry width="50" height="50" relative="1" as="geometry">
            <mxPoint x="120" y="500" as="sourcePoint" />
            <mxPoint x="220" y="500" as="targetPoint" />
          </mxGeometry>
        </mxCell>
        <mxCell id="QqzyqbhZqChSag3ZliqI-66" value="GetDeployClients" style="swimlane;whiteSpace=wrap;html=1;" parent="1" vertex="1">
          <mxGeometry x="-330" y="597.5" width="210" height="165" as="geometry">
            <mxRectangle x="-320" y="640" width="150" height="30" as="alternateBounds" />
          </mxGeometry>
        </mxCell>
        <mxCell id="QqzyqbhZqChSag3ZliqI-67" value="Stored Procedure&lt;div&gt;&lt;b&gt;&lt;u&gt;Input&lt;/u&gt;&lt;/b&gt;&lt;/div&gt;&lt;div&gt;Nothing&lt;/div&gt;&lt;div&gt;&lt;b&gt;&lt;u&gt;Output&lt;/u&gt;&lt;/b&gt;&lt;/div&gt;&lt;div&gt;clientName&lt;/div&gt;&lt;div&gt;clientState&lt;/div&gt;&lt;div&gt;clientID&lt;/div&gt;&lt;div&gt;clientTimeZone&lt;/div&gt;&lt;div&gt;status&lt;/div&gt;" style="text;html=1;align=center;verticalAlign=middle;resizable=0;points=[];autosize=1;strokeColor=none;fillColor=none;" parent="QqzyqbhZqChSag3ZliqI-66" vertex="1">
          <mxGeometry x="40" y="25" width="120" height="140" as="geometry" />
        </mxCell>
        <mxCell id="QqzyqbhZqChSag3ZliqI-68" value="GetDeployPrograms" style="swimlane;whiteSpace=wrap;html=1;" parent="1" vertex="1">
          <mxGeometry x="1050" y="600" width="170" height="140" as="geometry">
            <mxRectangle x="690" y="430" width="140" height="30" as="alternateBounds" />
          </mxGeometry>
        </mxCell>
        <mxCell id="QqzyqbhZqChSag3ZliqI-69" value="Stored Procedure&lt;div&gt;&lt;b&gt;&lt;u&gt;Input&lt;/u&gt;&lt;/b&gt;&lt;/div&gt;&lt;div&gt;Nothing&lt;/div&gt;&lt;div&gt;&lt;b&gt;&lt;u&gt;Output&lt;/u&gt;&lt;/b&gt;&lt;/div&gt;&lt;div&gt;programID&lt;/div&gt;&lt;div&gt;programName&lt;/div&gt;&lt;div&gt;&lt;br&gt;&lt;/div&gt;" style="text;html=1;align=center;verticalAlign=middle;resizable=0;points=[];autosize=1;strokeColor=none;fillColor=none;" parent="QqzyqbhZqChSag3ZliqI-68" vertex="1">
          <mxGeometry x="25" y="20" width="120" height="110" as="geometry" />
        </mxCell>
        <mxCell id="QqzyqbhZqChSag3ZliqI-70" value="GetProgramsByClient" style="swimlane;whiteSpace=wrap;html=1;" parent="1" vertex="1">
          <mxGeometry x="130" y="597.5" width="210" height="217.5" as="geometry">
            <mxRectangle x="60" y="640" width="195" height="30" as="alternateBounds" />
          </mxGeometry>
        </mxCell>
        <mxCell id="QqzyqbhZqChSag3ZliqI-71" value="Stored Procedure&lt;div&gt;&lt;b&gt;&lt;u&gt;Input&lt;/u&gt;&lt;/b&gt;&lt;/div&gt;&lt;div&gt;clientID&lt;/div&gt;&lt;div&gt;&lt;b&gt;&lt;u&gt;Output&lt;/u&gt;&lt;/b&gt;&lt;/div&gt;&lt;div&gt;programID&lt;/div&gt;&lt;div&gt;programName&lt;/div&gt;&lt;div&gt;programVersion&lt;/div&gt;&lt;div&gt;mainURL&lt;/div&gt;&lt;div&gt;backupURL&lt;/div&gt;&lt;div&gt;clientName&lt;/div&gt;&lt;div&gt;APILocation&lt;/div&gt;&lt;div&gt;applicationPool&lt;/div&gt;" style="text;html=1;align=center;verticalAlign=middle;resizable=0;points=[];autosize=1;strokeColor=none;fillColor=none;" parent="QqzyqbhZqChSag3ZliqI-70" vertex="1">
          <mxGeometry x="40" y="17.5" width="120" height="190" as="geometry" />
        </mxCell>
        <mxCell id="QqzyqbhZqChSag3ZliqI-72" value="getAllPackages" style="swimlane;whiteSpace=wrap;html=1;" parent="1" vertex="1">
          <mxGeometry x="1250" y="600" width="210" height="160" as="geometry">
            <mxRectangle x="990" y="650" width="140" height="30" as="alternateBounds" />
          </mxGeometry>
        </mxCell>
        <mxCell id="QqzyqbhZqChSag3ZliqI-73" value="Stored Procedure&lt;div&gt;&lt;b&gt;&lt;u&gt;Input&lt;/u&gt;&lt;/b&gt;&lt;/div&gt;&lt;div&gt;Nothing&lt;/div&gt;&lt;div&gt;&lt;b&gt;&lt;u&gt;Output&lt;/u&gt;&lt;/b&gt;&lt;/div&gt;&lt;div&gt;packageName&lt;/div&gt;&lt;div&gt;cuser&lt;/div&gt;&lt;div&gt;cdate&lt;/div&gt;&lt;div&gt;status&lt;/div&gt;" style="text;html=1;align=center;verticalAlign=middle;resizable=0;points=[];autosize=1;strokeColor=none;fillColor=none;" parent="QqzyqbhZqChSag3ZliqI-72" vertex="1">
          <mxGeometry x="40" y="25" width="120" height="130" as="geometry" />
        </mxCell>
        <mxCell id="QqzyqbhZqChSag3ZliqI-74" value="getFilesByPackage" style="swimlane;whiteSpace=wrap;html=1;" parent="1" vertex="1">
          <mxGeometry x="1910" y="600" width="210" height="160" as="geometry">
            <mxRectangle x="1660" y="640" width="140" height="30" as="alternateBounds" />
          </mxGeometry>
        </mxCell>
        <mxCell id="QqzyqbhZqChSag3ZliqI-75" value="Stored Procedure&lt;div&gt;&lt;b&gt;&lt;u&gt;Input&lt;/u&gt;&lt;/b&gt;&lt;/div&gt;&lt;div&gt;packageName&lt;/div&gt;&lt;div&gt;&lt;b&gt;&lt;u&gt;Output&lt;/u&gt;&lt;/b&gt;&lt;/div&gt;&lt;div&gt;fileName&lt;/div&gt;&lt;div&gt;fileSize&lt;/div&gt;&lt;div&gt;dateCreated&lt;/div&gt;&lt;div&gt;status&lt;/div&gt;" style="text;html=1;align=center;verticalAlign=middle;resizable=0;points=[];autosize=1;strokeColor=none;fillColor=none;" parent="QqzyqbhZqChSag3ZliqI-74" vertex="1">
          <mxGeometry x="40" y="25" width="120" height="130" as="geometry" />
        </mxCell>
        <mxCell id="QqzyqbhZqChSag3ZliqI-77" value="UpdateDepProgramPackages" style="swimlane;whiteSpace=wrap;html=1;" parent="1" vertex="1">
          <mxGeometry x="-100" y="597.5" width="210" height="180" as="geometry">
            <mxRectangle x="400" y="620" width="210" height="30" as="alternateBounds" />
          </mxGeometry>
        </mxCell>
        <mxCell id="QqzyqbhZqChSag3ZliqI-78" value="Stored Procedure&lt;div&gt;&lt;b&gt;&lt;u&gt;Input&lt;/u&gt;&lt;/b&gt;&lt;/div&gt;&lt;div&gt;&lt;span style=&quot;background-color: initial;&quot;&gt;clientID&lt;/span&gt;&lt;/div&gt;&lt;div&gt;&lt;span style=&quot;background-color: initial;&quot;&gt;programName&lt;/span&gt;&lt;/div&gt;&lt;div&gt;&lt;span style=&quot;background-color: initial;&quot;&gt;packageName&lt;/span&gt;&lt;/div&gt;&lt;div&gt;&lt;span style=&quot;background-color: initial;&quot;&gt;packageVersion&lt;/span&gt;&lt;/div&gt;&lt;div&gt;&lt;span style=&quot;background-color: initial;&quot;&gt;userName&lt;/span&gt;&lt;/div&gt;&lt;div&gt;&lt;span style=&quot;background-color: initial;&quot;&gt;&lt;u style=&quot;font-weight: bold;&quot;&gt;Output&lt;/u&gt;&lt;/span&gt;&lt;br&gt;&lt;/div&gt;&lt;div&gt;-1&lt;/div&gt;&lt;div&gt;Updates DeployClientPrograms&lt;/div&gt;" style="text;html=1;align=center;verticalAlign=middle;resizable=0;points=[];autosize=1;strokeColor=none;fillColor=none;" parent="QqzyqbhZqChSag3ZliqI-77" vertex="1">
          <mxGeometry x="10" y="17.5" width="190" height="160" as="geometry" />
        </mxCell>
        <mxCell id="QqzyqbhZqChSag3ZliqI-79" value="UpdateDeployPackages" style="swimlane;whiteSpace=wrap;html=1;" parent="1" vertex="1">
          <mxGeometry x="1470" y="600" width="210" height="170" as="geometry">
            <mxRectangle x="1192" y="640" width="167" height="30" as="alternateBounds" />
          </mxGeometry>
        </mxCell>
        <mxCell id="QqzyqbhZqChSag3ZliqI-80" value="Stored Procedure&lt;div&gt;&lt;b&gt;&lt;u&gt;Input&lt;/u&gt;&lt;/b&gt;&lt;/div&gt;&lt;div&gt;packageName&lt;/div&gt;&lt;div&gt;userName&lt;/div&gt;&lt;div&gt;status&lt;/div&gt;&lt;div&gt;&lt;b&gt;&lt;u&gt;Output&lt;/u&gt;&lt;/b&gt;&lt;/div&gt;&lt;div&gt;-1&lt;/div&gt;&lt;div&gt;Creates New Package Record&lt;br&gt;In DeployPackages&lt;/div&gt;" style="text;html=1;align=center;verticalAlign=middle;resizable=0;points=[];autosize=1;strokeColor=none;fillColor=none;" parent="QqzyqbhZqChSag3ZliqI-79" vertex="1">
          <mxGeometry x="10" y="20" width="180" height="140" as="geometry" />
        </mxCell>
        <mxCell id="QqzyqbhZqChSag3ZliqI-82" value="UpdatePackageFiles" style="swimlane;whiteSpace=wrap;html=1;" parent="1" vertex="1">
          <mxGeometry x="1690" y="600" width="210" height="195" as="geometry">
            <mxRectangle x="1370" y="640" width="214" height="30" as="alternateBounds" />
          </mxGeometry>
        </mxCell>
        <mxCell id="QqzyqbhZqChSag3ZliqI-83" value="Stored Procedure&lt;div&gt;&lt;b&gt;&lt;u&gt;Input&lt;/u&gt;&lt;/b&gt;&lt;/div&gt;&lt;div&gt;fileName&lt;/div&gt;&lt;div&gt;packageName&lt;/div&gt;&lt;div&gt;fileSize&lt;/div&gt;&lt;div&gt;status&lt;/div&gt;&lt;div&gt;&lt;b&gt;&lt;u&gt;Output&lt;/u&gt;&lt;/b&gt;&lt;/div&gt;&lt;div&gt;-1&lt;/div&gt;&lt;div&gt;Creates New Package File Record&lt;br&gt;In DeployPackageFiles&lt;/div&gt;" style="text;html=1;align=center;verticalAlign=middle;resizable=0;points=[];autosize=1;strokeColor=none;fillColor=none;" parent="QqzyqbhZqChSag3ZliqI-82" vertex="1">
          <mxGeometry x="-5" y="25" width="210" height="160" as="geometry" />
        </mxCell>
        <mxCell id="QqzyqbhZqChSag3ZliqI-84" value="UpdateClientPrograms" style="swimlane;whiteSpace=wrap;html=1;" parent="1" vertex="1">
          <mxGeometry x="590" y="597.5" width="210" height="195" as="geometry">
            <mxRectangle x="340" y="830" width="200" height="30" as="alternateBounds" />
          </mxGeometry>
        </mxCell>
        <mxCell id="QqzyqbhZqChSag3ZliqI-85" value="Stored Procedure&lt;div&gt;&lt;b&gt;&lt;u&gt;Input&lt;/u&gt;&lt;/b&gt;&lt;/div&gt;&lt;div&gt;programID&lt;/div&gt;&lt;div&gt;clientID&lt;/div&gt;&lt;div&gt;mainURL&lt;/div&gt;&lt;div&gt;backupURL&lt;/div&gt;&lt;div&gt;appPool&lt;/div&gt;&lt;div&gt;&lt;b&gt;&lt;u&gt;Output&lt;/u&gt;&lt;/b&gt;&lt;/div&gt;&lt;div&gt;-1&lt;/div&gt;&lt;div&gt;Creates New Client-Program&lt;/div&gt;&lt;div&gt;Record in DeployClientPrograms&lt;/div&gt;" style="text;html=1;align=center;verticalAlign=middle;resizable=0;points=[];autosize=1;strokeColor=none;fillColor=none;" parent="QqzyqbhZqChSag3ZliqI-84" vertex="1">
          <mxGeometry x="5" y="23.75" width="200" height="170" as="geometry" />
        </mxCell>
        <mxCell id="QqzyqbhZqChSag3ZliqI-88" value="UpdateDepClients" style="swimlane;whiteSpace=wrap;html=1;" parent="1" vertex="1">
          <mxGeometry x="-560" y="600" width="210" height="200" as="geometry">
            <mxRectangle x="-540" y="640" width="140" height="30" as="alternateBounds" />
          </mxGeometry>
        </mxCell>
        <mxCell id="QqzyqbhZqChSag3ZliqI-89" value="Stored Procedure&lt;div&gt;&lt;b&gt;&lt;u&gt;Input&lt;/u&gt;&lt;/b&gt;&lt;/div&gt;&lt;div&gt;&lt;span style=&quot;background-color: initial;&quot;&gt;clientName&lt;/span&gt;&lt;/div&gt;&lt;div&gt;&lt;span style=&quot;background-color: initial;&quot;&gt;clientState&lt;/span&gt;&lt;/div&gt;&lt;div&gt;&lt;span style=&quot;background-color: initial;&quot;&gt;clientTimeZone&lt;/span&gt;&lt;/div&gt;&lt;div&gt;&lt;span style=&quot;background-color: initial;&quot;&gt;APILocation&lt;/span&gt;&lt;/div&gt;&lt;div&gt;&lt;span style=&quot;background-color: initial;&quot;&gt;&lt;u style=&quot;font-weight: bold;&quot;&gt;Output&lt;/u&gt;&lt;/span&gt;&lt;br&gt;&lt;/div&gt;&lt;div&gt;-1&lt;/div&gt;&lt;div&gt;Creates New Client Record&lt;/div&gt;&lt;div&gt;in DeployClients&lt;/div&gt;" style="text;html=1;align=center;verticalAlign=middle;resizable=0;points=[];autosize=1;strokeColor=none;fillColor=none;" parent="QqzyqbhZqChSag3ZliqI-88" vertex="1">
          <mxGeometry x="20" y="30" width="170" height="160" as="geometry" />
        </mxCell>
        <mxCell id="QqzyqbhZqChSag3ZliqI-92" value="" style="shape=flexArrow;endArrow=classic;html=1;rounded=0;entryX=0.5;entryY=0;entryDx=0;entryDy=0;" parent="1" target="QqzyqbhZqChSag3ZliqI-66" edge="1">
          <mxGeometry width="50" height="50" relative="1" as="geometry">
            <mxPoint x="-180" y="440" as="sourcePoint" />
            <mxPoint x="70" y="420" as="targetPoint" />
          </mxGeometry>
        </mxCell>
        <mxCell id="QqzyqbhZqChSag3ZliqI-96" value="" style="shape=flexArrow;endArrow=classic;html=1;rounded=0;exitX=0.5;exitY=0;exitDx=0;exitDy=0;" parent="1" source="QqzyqbhZqChSag3ZliqI-88" edge="1">
          <mxGeometry width="50" height="50" relative="1" as="geometry">
            <mxPoint x="-60" y="1040" as="sourcePoint" />
            <mxPoint x="-190" y="420" as="targetPoint" />
          </mxGeometry>
        </mxCell>
        <mxCell id="QqzyqbhZqChSag3ZliqI-97" value="" style="shape=flexArrow;endArrow=classic;html=1;rounded=0;" parent="1" edge="1">
          <mxGeometry width="50" height="50" relative="1" as="geometry">
            <mxPoint x="830" y="300" as="sourcePoint" />
            <mxPoint x="1130" y="580" as="targetPoint" />
          </mxGeometry>
        </mxCell>
        <mxCell id="QqzyqbhZqChSag3ZliqI-98" value="" style="shape=flexArrow;endArrow=classic;html=1;rounded=0;" parent="1" edge="1">
          <mxGeometry width="50" height="50" relative="1" as="geometry">
            <mxPoint x="-140" y="430" as="sourcePoint" />
            <mxPoint x="230" y="590" as="targetPoint" />
          </mxGeometry>
        </mxCell>
        <mxCell id="QqzyqbhZqChSag3ZliqI-99" value="" style="shape=flexArrow;endArrow=classic;html=1;rounded=0;" parent="1" edge="1">
          <mxGeometry width="50" height="50" relative="1" as="geometry">
            <mxPoint x="280" y="470" as="sourcePoint" />
            <mxPoint x="250" y="580" as="targetPoint" />
          </mxGeometry>
        </mxCell>
        <mxCell id="QqzyqbhZqChSag3ZliqI-100" value="" style="shape=flexArrow;endArrow=classic;html=1;rounded=0;" parent="1" edge="1">
          <mxGeometry width="50" height="50" relative="1" as="geometry">
            <mxPoint x="770" y="310" as="sourcePoint" />
            <mxPoint x="270" y="590" as="targetPoint" />
          </mxGeometry>
        </mxCell>
        <mxCell id="QqzyqbhZqChSag3ZliqI-101" value="" style="shape=flexArrow;endArrow=classic;html=1;rounded=0;" parent="1" edge="1">
          <mxGeometry width="50" height="50" relative="1" as="geometry">
            <mxPoint x="1320" y="330" as="sourcePoint" />
            <mxPoint x="1350" y="590" as="targetPoint" />
          </mxGeometry>
        </mxCell>
        <mxCell id="QqzyqbhZqChSag3ZliqI-109" value="" style="group" parent="1" vertex="1" connectable="0">
          <mxGeometry x="-1650" y="260" width="210" height="270" as="geometry" />
        </mxCell>
        <mxCell id="QqzyqbhZqChSag3ZliqI-103" value="&lt;font style=&quot;font-size: 30px;&quot;&gt;Legend&lt;/font&gt;" style="rounded=0;whiteSpace=wrap;html=1;" parent="QqzyqbhZqChSag3ZliqI-109" vertex="1">
          <mxGeometry width="209.99999999999994" height="55.862068965517246" as="geometry" />
        </mxCell>
        <mxCell id="QqzyqbhZqChSag3ZliqI-105" value="" style="rounded=0;whiteSpace=wrap;html=1;" parent="QqzyqbhZqChSag3ZliqI-109" vertex="1">
          <mxGeometry x="95.45454545454544" y="55.862068965517246" width="114.54545454545453" height="214.1379310344828" as="geometry" />
        </mxCell>
        <mxCell id="QqzyqbhZqChSag3ZliqI-104" value="" style="shape=flexArrow;endArrow=classic;html=1;rounded=0;" parent="QqzyqbhZqChSag3ZliqI-109" edge="1">
          <mxGeometry width="50" height="50" relative="1" as="geometry">
            <mxPoint x="119.3181818181818" y="83.32758620689656" as="sourcePoint" />
            <mxPoint x="186.1363636363636" y="83.32758620689656" as="targetPoint" />
          </mxGeometry>
        </mxCell>
        <mxCell id="QqzyqbhZqChSag3ZliqI-106" value="" style="rounded=0;whiteSpace=wrap;html=1;" parent="QqzyqbhZqChSag3ZliqI-109" vertex="1">
          <mxGeometry y="55.862068965517246" width="95.45454545454544" height="214.1379310344828" as="geometry" />
        </mxCell>
        <mxCell id="QqzyqbhZqChSag3ZliqI-107" value="&lt;font style=&quot;font-size: 14px;&quot;&gt;Direction &lt;br&gt;of Data&lt;/font&gt;" style="text;html=1;align=center;verticalAlign=middle;resizable=0;points=[];autosize=1;strokeColor=none;fillColor=none;" parent="QqzyqbhZqChSag3ZliqI-109" vertex="1">
          <mxGeometry x="9.545454545454543" y="60.517241379310356" width="80" height="50" as="geometry" />
        </mxCell>
        <mxCell id="QqzyqbhZqChSag3ZliqI-108" value="" style="endArrow=none;html=1;rounded=0;entryX=1.017;entryY=0.281;entryDx=0;entryDy=0;entryPerimeter=0;" parent="QqzyqbhZqChSag3ZliqI-109" target="QqzyqbhZqChSag3ZliqI-105" edge="1">
          <mxGeometry width="50" height="50" relative="1" as="geometry">
            <mxPoint y="116" as="sourcePoint" />
            <mxPoint x="310" y="150" as="targetPoint" />
          </mxGeometry>
        </mxCell>
        <mxCell id="QqzyqbhZqChSag3ZliqI-255" value="" style="endArrow=none;html=1;rounded=0;entryX=1;entryY=0.5;entryDx=0;entryDy=0;exitX=0;exitY=0.5;exitDx=0;exitDy=0;" parent="QqzyqbhZqChSag3ZliqI-109" source="QqzyqbhZqChSag3ZliqI-106" target="QqzyqbhZqChSag3ZliqI-105" edge="1">
          <mxGeometry width="50" height="50" relative="1" as="geometry">
            <mxPoint x="-80" y="170" as="sourcePoint" />
            <mxPoint x="-30" y="120" as="targetPoint" />
          </mxGeometry>
        </mxCell>
        <mxCell id="QqzyqbhZqChSag3ZliqI-256" value="Used By&amp;nbsp;&lt;br&gt;Call" style="text;html=1;align=center;verticalAlign=middle;resizable=0;points=[];autosize=1;strokeColor=none;fillColor=none;" parent="QqzyqbhZqChSag3ZliqI-109" vertex="1">
          <mxGeometry x="12.730000000000018" y="120" width="70" height="40" as="geometry" />
        </mxCell>
        <mxCell id="QqzyqbhZqChSag3ZliqI-259" value="" style="endArrow=classic;startArrow=classic;html=1;rounded=0;" parent="QqzyqbhZqChSag3ZliqI-109" edge="1">
          <mxGeometry width="50" height="50" relative="1" as="geometry">
            <mxPoint x="112.73000000000002" y="140.01999999999998" as="sourcePoint" />
            <mxPoint x="192.73000000000002" y="139.5" as="targetPoint" />
          </mxGeometry>
        </mxCell>
        <mxCell id="QqzyqbhZqChSag3ZliqI-110" value="" style="shape=flexArrow;endArrow=classic;html=1;rounded=0;" parent="1" edge="1">
          <mxGeometry width="50" height="50" relative="1" as="geometry">
            <mxPoint x="1560" y="330" as="sourcePoint" />
            <mxPoint x="1990" y="580" as="targetPoint" />
          </mxGeometry>
        </mxCell>
        <mxCell id="QqzyqbhZqChSag3ZliqI-111" value="" style="shape=flexArrow;endArrow=classic;html=1;rounded=0;exitX=0.5;exitY=0;exitDx=0;exitDy=0;" parent="1" source="QqzyqbhZqChSag3ZliqI-79" edge="1">
          <mxGeometry width="50" height="50" relative="1" as="geometry">
            <mxPoint x="1192" y="349" as="sourcePoint" />
            <mxPoint x="1350" y="320" as="targetPoint" />
          </mxGeometry>
        </mxCell>
        <mxCell id="QqzyqbhZqChSag3ZliqI-113" value="" style="shape=flexArrow;endArrow=classic;html=1;rounded=0;" parent="1" edge="1">
          <mxGeometry width="50" height="50" relative="1" as="geometry">
            <mxPoint x="10" y="580" as="sourcePoint" />
            <mxPoint x="240" y="460" as="targetPoint" />
          </mxGeometry>
        </mxCell>
        <mxCell id="QqzyqbhZqChSag3ZliqI-115" value="" style="shape=flexArrow;endArrow=classic;html=1;rounded=0;" parent="1" edge="1">
          <mxGeometry width="50" height="50" relative="1" as="geometry">
            <mxPoint x="1770" y="580" as="sourcePoint" />
            <mxPoint x="1520" y="330" as="targetPoint" />
          </mxGeometry>
        </mxCell>
        <mxCell id="QqzyqbhZqChSag3ZliqI-116" value="" style="shape=flexArrow;endArrow=classic;html=1;rounded=0;exitX=0.5;exitY=0;exitDx=0;exitDy=0;" parent="1" source="QqzyqbhZqChSag3ZliqI-84" edge="1">
          <mxGeometry width="50" height="50" relative="1" as="geometry">
            <mxPoint x="340" y="600" as="sourcePoint" />
            <mxPoint x="330" y="460" as="targetPoint" />
          </mxGeometry>
        </mxCell>
        <mxCell id="QqzyqbhZqChSag3ZliqI-117" value="" style="shape=flexArrow;endArrow=classic;html=1;rounded=0;" parent="1" edge="1">
          <mxGeometry width="50" height="50" relative="1" as="geometry">
            <mxPoint x="920" y="590" as="sourcePoint" />
            <mxPoint x="810" y="320" as="targetPoint" />
          </mxGeometry>
        </mxCell>
        <mxCell id="QqzyqbhZqChSag3ZliqI-120" value="&lt;font style=&quot;font-size: 18px;&quot;&gt;getPrograms&lt;/font&gt;" style="rounded=0;whiteSpace=wrap;html=1;" parent="1" vertex="1">
          <mxGeometry x="140" y="920" width="190" height="40" as="geometry" />
        </mxCell>
        <mxCell id="QqzyqbhZqChSag3ZliqI-122" value="&lt;font style=&quot;font-size: 14px;&quot;&gt;&lt;u style=&quot;font-weight: bold;&quot;&gt;Input&lt;/u&gt;&lt;br&gt;sendInfo containing&lt;br&gt;clientID&lt;br&gt;&lt;br&gt;&lt;/font&gt;" style="shape=process;whiteSpace=wrap;html=1;backgroundOutline=1;" parent="1" vertex="1">
          <mxGeometry x="140" y="960" width="190" height="70" as="geometry" />
        </mxCell>
        <mxCell id="QqzyqbhZqChSag3ZliqI-123" value="" style="endArrow=classic;startArrow=classic;html=1;rounded=0;entryX=0.5;entryY=1;entryDx=0;entryDy=0;exitX=0.5;exitY=0;exitDx=0;exitDy=0;" parent="1" source="QqzyqbhZqChSag3ZliqI-120" target="QqzyqbhZqChSag3ZliqI-70" edge="1">
          <mxGeometry width="50" height="50" relative="1" as="geometry">
            <mxPoint x="220" y="880" as="sourcePoint" />
            <mxPoint x="270" y="830" as="targetPoint" />
          </mxGeometry>
        </mxCell>
        <mxCell id="QqzyqbhZqChSag3ZliqI-125" value="states" style="swimlane;fontStyle=0;childLayout=stackLayout;horizontal=1;startSize=30;horizontalStack=0;resizeParent=1;resizeParentMax=0;resizeLast=0;collapsible=1;marginBottom=0;whiteSpace=wrap;html=1;fontSize=14;" parent="1" vertex="1">
          <mxGeometry x="-750" y="80" width="140" height="300" as="geometry" />
        </mxCell>
        <mxCell id="QqzyqbhZqChSag3ZliqI-126" value="id" style="text;strokeColor=none;fillColor=none;align=left;verticalAlign=middle;spacingLeft=4;spacingRight=4;overflow=hidden;points=[[0,0.5],[1,0.5]];portConstraint=eastwest;rotatable=0;whiteSpace=wrap;html=1;fontStyle=4" parent="QqzyqbhZqChSag3ZliqI-125" vertex="1">
          <mxGeometry y="30" width="140" height="30" as="geometry" />
        </mxCell>
        <mxCell id="QqzyqbhZqChSag3ZliqI-127" value="name" style="text;strokeColor=none;fillColor=none;align=left;verticalAlign=middle;spacingLeft=4;spacingRight=4;overflow=hidden;points=[[0,0.5],[1,0.5]];portConstraint=eastwest;rotatable=0;whiteSpace=wrap;html=1;" parent="QqzyqbhZqChSag3ZliqI-125" vertex="1">
          <mxGeometry y="60" width="140" height="30" as="geometry" />
        </mxCell>
        <mxCell id="QqzyqbhZqChSag3ZliqI-128" value="code" style="text;strokeColor=none;fillColor=none;align=left;verticalAlign=middle;spacingLeft=4;spacingRight=4;overflow=hidden;points=[[0,0.5],[1,0.5]];portConstraint=eastwest;rotatable=0;whiteSpace=wrap;html=1;" parent="QqzyqbhZqChSag3ZliqI-125" vertex="1">
          <mxGeometry y="90" width="140" height="30" as="geometry" />
        </mxCell>
        <mxCell id="QqzyqbhZqChSag3ZliqI-129" value="status" style="text;strokeColor=none;fillColor=none;align=left;verticalAlign=middle;spacingLeft=4;spacingRight=4;overflow=hidden;points=[[0,0.5],[1,0.5]];portConstraint=eastwest;rotatable=0;whiteSpace=wrap;html=1;" parent="QqzyqbhZqChSag3ZliqI-125" vertex="1">
          <mxGeometry y="120" width="140" height="30" as="geometry" />
        </mxCell>
        <mxCell id="QqzyqbhZqChSag3ZliqI-130" value="flags" style="text;strokeColor=none;fillColor=none;align=left;verticalAlign=middle;spacingLeft=4;spacingRight=4;overflow=hidden;points=[[0,0.5],[1,0.5]];portConstraint=eastwest;rotatable=0;whiteSpace=wrap;html=1;" parent="QqzyqbhZqChSag3ZliqI-125" vertex="1">
          <mxGeometry y="150" width="140" height="30" as="geometry" />
        </mxCell>
        <mxCell id="QqzyqbhZqChSag3ZliqI-131" value="cdate" style="text;strokeColor=none;fillColor=none;align=left;verticalAlign=middle;spacingLeft=4;spacingRight=4;overflow=hidden;points=[[0,0.5],[1,0.5]];portConstraint=eastwest;rotatable=0;whiteSpace=wrap;html=1;" parent="QqzyqbhZqChSag3ZliqI-125" vertex="1">
          <mxGeometry y="180" width="140" height="30" as="geometry" />
        </mxCell>
        <mxCell id="QqzyqbhZqChSag3ZliqI-132" value="cuser" style="text;strokeColor=none;fillColor=none;align=left;verticalAlign=middle;spacingLeft=4;spacingRight=4;overflow=hidden;points=[[0,0.5],[1,0.5]];portConstraint=eastwest;rotatable=0;whiteSpace=wrap;html=1;" parent="QqzyqbhZqChSag3ZliqI-125" vertex="1">
          <mxGeometry y="210" width="140" height="30" as="geometry" />
        </mxCell>
        <mxCell id="QqzyqbhZqChSag3ZliqI-134" value="muser" style="text;strokeColor=none;fillColor=none;align=left;verticalAlign=middle;spacingLeft=4;spacingRight=4;overflow=hidden;points=[[0,0.5],[1,0.5]];portConstraint=eastwest;rotatable=0;whiteSpace=wrap;html=1;" parent="QqzyqbhZqChSag3ZliqI-125" vertex="1">
          <mxGeometry y="240" width="140" height="30" as="geometry" />
        </mxCell>
        <mxCell id="QqzyqbhZqChSag3ZliqI-135" value="mdate" style="text;strokeColor=none;fillColor=none;align=left;verticalAlign=middle;spacingLeft=4;spacingRight=4;overflow=hidden;points=[[0,0.5],[1,0.5]];portConstraint=eastwest;rotatable=0;whiteSpace=wrap;html=1;" parent="QqzyqbhZqChSag3ZliqI-125" vertex="1">
          <mxGeometry y="270" width="140" height="30" as="geometry" />
        </mxCell>
        <mxCell id="QqzyqbhZqChSag3ZliqI-136" value="GetStates" style="swimlane;whiteSpace=wrap;html=1;" parent="1" vertex="1">
          <mxGeometry x="-750" y="600" width="130" height="140" as="geometry">
            <mxRectangle x="-320" y="640" width="150" height="30" as="alternateBounds" />
          </mxGeometry>
        </mxCell>
        <mxCell id="QqzyqbhZqChSag3ZliqI-137" value="Stored Procedure&lt;div&gt;&lt;b&gt;&lt;u&gt;Input&lt;/u&gt;&lt;/b&gt;&lt;/div&gt;&lt;div&gt;Nothing&lt;/div&gt;&lt;div&gt;&lt;b&gt;&lt;u&gt;Output&lt;/u&gt;&lt;/b&gt;&lt;/div&gt;&lt;div&gt;id&lt;/div&gt;&lt;div&gt;name&lt;/div&gt;" style="text;html=1;align=center;verticalAlign=middle;resizable=0;points=[];autosize=1;strokeColor=none;fillColor=none;" parent="QqzyqbhZqChSag3ZliqI-136" vertex="1">
          <mxGeometry x="5" y="25" width="120" height="100" as="geometry" />
        </mxCell>
        <mxCell id="QqzyqbhZqChSag3ZliqI-138" value="" style="shape=flexArrow;endArrow=classic;html=1;rounded=0;" parent="1" edge="1">
          <mxGeometry width="50" height="50" relative="1" as="geometry">
            <mxPoint x="-690" y="410" as="sourcePoint" />
            <mxPoint x="-690" y="590" as="targetPoint" />
          </mxGeometry>
        </mxCell>
        <mxCell id="QqzyqbhZqChSag3ZliqI-139" value="" style="endArrow=ERone;html=1;rounded=0;exitX=0;exitY=0.5;exitDx=0;exitDy=0;entryX=1;entryY=0.5;entryDx=0;entryDy=0;startArrow=ERmany;startFill=0;endFill=0;" parent="1" source="QqzyqbhZqChSag3ZliqI-4" target="QqzyqbhZqChSag3ZliqI-127" edge="1">
          <mxGeometry width="50" height="50" relative="1" as="geometry">
            <mxPoint x="-520" y="169.41" as="sourcePoint" />
            <mxPoint x="-200" y="169.41" as="targetPoint" />
            <Array as="points">
              <mxPoint x="-360" y="185" />
              <mxPoint x="-360" y="155" />
            </Array>
          </mxGeometry>
        </mxCell>
        <mxCell id="QqzyqbhZqChSag3ZliqI-140" value="Timezone_state_link" style="swimlane;fontStyle=0;childLayout=stackLayout;horizontal=1;startSize=30;horizontalStack=0;resizeParent=1;resizeParentMax=0;resizeLast=0;collapsible=1;marginBottom=0;whiteSpace=wrap;html=1;fontSize=13;" parent="1" vertex="1">
          <mxGeometry x="-1010" y="80" width="140" height="180" as="geometry" />
        </mxCell>
        <mxCell id="QqzyqbhZqChSag3ZliqI-141" value="id" style="text;strokeColor=none;fillColor=none;align=left;verticalAlign=middle;spacingLeft=4;spacingRight=4;overflow=hidden;points=[[0,0.5],[1,0.5]];portConstraint=eastwest;rotatable=0;whiteSpace=wrap;html=1;fontStyle=4" parent="QqzyqbhZqChSag3ZliqI-140" vertex="1">
          <mxGeometry y="30" width="140" height="30" as="geometry" />
        </mxCell>
        <mxCell id="QqzyqbhZqChSag3ZliqI-142" value="timezoneid" style="text;strokeColor=none;fillColor=none;align=left;verticalAlign=middle;spacingLeft=4;spacingRight=4;overflow=hidden;points=[[0,0.5],[1,0.5]];portConstraint=eastwest;rotatable=0;whiteSpace=wrap;html=1;" parent="QqzyqbhZqChSag3ZliqI-140" vertex="1">
          <mxGeometry y="60" width="140" height="30" as="geometry" />
        </mxCell>
        <mxCell id="QqzyqbhZqChSag3ZliqI-143" value="stateid" style="text;strokeColor=none;fillColor=none;align=left;verticalAlign=middle;spacingLeft=4;spacingRight=4;overflow=hidden;points=[[0,0.5],[1,0.5]];portConstraint=eastwest;rotatable=0;whiteSpace=wrap;html=1;" parent="QqzyqbhZqChSag3ZliqI-140" vertex="1">
          <mxGeometry y="90" width="140" height="30" as="geometry" />
        </mxCell>
        <mxCell id="QqzyqbhZqChSag3ZliqI-146" value="cdate" style="text;strokeColor=none;fillColor=none;align=left;verticalAlign=middle;spacingLeft=4;spacingRight=4;overflow=hidden;points=[[0,0.5],[1,0.5]];portConstraint=eastwest;rotatable=0;whiteSpace=wrap;html=1;" parent="QqzyqbhZqChSag3ZliqI-140" vertex="1">
          <mxGeometry y="120" width="140" height="30" as="geometry" />
        </mxCell>
        <mxCell id="QqzyqbhZqChSag3ZliqI-147" value="cuser" style="text;strokeColor=none;fillColor=none;align=left;verticalAlign=middle;spacingLeft=4;spacingRight=4;overflow=hidden;points=[[0,0.5],[1,0.5]];portConstraint=eastwest;rotatable=0;whiteSpace=wrap;html=1;" parent="QqzyqbhZqChSag3ZliqI-140" vertex="1">
          <mxGeometry y="150" width="140" height="30" as="geometry" />
        </mxCell>
        <mxCell id="QqzyqbhZqChSag3ZliqI-150" value="timezones" style="swimlane;fontStyle=0;childLayout=stackLayout;horizontal=1;startSize=30;horizontalStack=0;resizeParent=1;resizeParentMax=0;resizeLast=0;collapsible=1;marginBottom=0;whiteSpace=wrap;html=1;fontSize=15;" parent="1" vertex="1">
          <mxGeometry x="-1260" y="80" width="140" height="240" as="geometry" />
        </mxCell>
        <mxCell id="QqzyqbhZqChSag3ZliqI-151" value="id" style="text;strokeColor=none;fillColor=none;align=left;verticalAlign=middle;spacingLeft=4;spacingRight=4;overflow=hidden;points=[[0,0.5],[1,0.5]];portConstraint=eastwest;rotatable=0;whiteSpace=wrap;html=1;fontStyle=4" parent="QqzyqbhZqChSag3ZliqI-150" vertex="1">
          <mxGeometry y="30" width="140" height="30" as="geometry" />
        </mxCell>
        <mxCell id="QqzyqbhZqChSag3ZliqI-152" value="version" style="text;strokeColor=none;fillColor=none;align=left;verticalAlign=middle;spacingLeft=4;spacingRight=4;overflow=hidden;points=[[0,0.5],[1,0.5]];portConstraint=eastwest;rotatable=0;whiteSpace=wrap;html=1;" parent="QqzyqbhZqChSag3ZliqI-150" vertex="1">
          <mxGeometry y="60" width="140" height="30" as="geometry" />
        </mxCell>
        <mxCell id="QqzyqbhZqChSag3ZliqI-153" value="version_id" style="text;strokeColor=none;fillColor=none;align=left;verticalAlign=middle;spacingLeft=4;spacingRight=4;overflow=hidden;points=[[0,0.5],[1,0.5]];portConstraint=eastwest;rotatable=0;whiteSpace=wrap;html=1;" parent="QqzyqbhZqChSag3ZliqI-150" vertex="1">
          <mxGeometry y="90" width="140" height="30" as="geometry" />
        </mxCell>
        <mxCell id="QqzyqbhZqChSag3ZliqI-154" value="tz_shortname" style="text;strokeColor=none;fillColor=none;align=left;verticalAlign=middle;spacingLeft=4;spacingRight=4;overflow=hidden;points=[[0,0.5],[1,0.5]];portConstraint=eastwest;rotatable=0;whiteSpace=wrap;html=1;" parent="QqzyqbhZqChSag3ZliqI-150" vertex="1">
          <mxGeometry y="120" width="140" height="30" as="geometry" />
        </mxCell>
        <mxCell id="QqzyqbhZqChSag3ZliqI-155" value="tz_longname" style="text;strokeColor=none;fillColor=none;align=left;verticalAlign=middle;spacingLeft=4;spacingRight=4;overflow=hidden;points=[[0,0.5],[1,0.5]];portConstraint=eastwest;rotatable=0;whiteSpace=wrap;html=1;" parent="QqzyqbhZqChSag3ZliqI-150" vertex="1">
          <mxGeometry y="150" width="140" height="30" as="geometry" />
        </mxCell>
        <mxCell id="QqzyqbhZqChSag3ZliqI-156" value="cdate" style="text;strokeColor=none;fillColor=none;align=left;verticalAlign=middle;spacingLeft=4;spacingRight=4;overflow=hidden;points=[[0,0.5],[1,0.5]];portConstraint=eastwest;rotatable=0;whiteSpace=wrap;html=1;" parent="QqzyqbhZqChSag3ZliqI-150" vertex="1">
          <mxGeometry y="180" width="140" height="30" as="geometry" />
        </mxCell>
        <mxCell id="QqzyqbhZqChSag3ZliqI-157" value="cuser" style="text;strokeColor=none;fillColor=none;align=left;verticalAlign=middle;spacingLeft=4;spacingRight=4;overflow=hidden;points=[[0,0.5],[1,0.5]];portConstraint=eastwest;rotatable=0;whiteSpace=wrap;html=1;" parent="QqzyqbhZqChSag3ZliqI-150" vertex="1">
          <mxGeometry y="210" width="140" height="30" as="geometry" />
        </mxCell>
        <mxCell id="QqzyqbhZqChSag3ZliqI-160" value="" style="endArrow=ERmany;html=1;rounded=0;exitX=1;exitY=0.5;exitDx=0;exitDy=0;entryX=0;entryY=0.5;entryDx=0;entryDy=0;startArrow=ERone;startFill=0;endFill=0;" parent="1" source="QqzyqbhZqChSag3ZliqI-151" target="QqzyqbhZqChSag3ZliqI-142" edge="1">
          <mxGeometry width="50" height="50" relative="1" as="geometry">
            <mxPoint x="-1100" y="400" as="sourcePoint" />
            <mxPoint x="-1050" y="350" as="targetPoint" />
            <Array as="points">
              <mxPoint x="-1060" y="125" />
              <mxPoint x="-1060" y="155" />
            </Array>
          </mxGeometry>
        </mxCell>
        <mxCell id="QqzyqbhZqChSag3ZliqI-162" value="" style="endArrow=ERone;html=1;rounded=0;entryX=0;entryY=0.5;entryDx=0;entryDy=0;exitX=1;exitY=0.5;exitDx=0;exitDy=0;endFill=0;startArrow=ERmany;startFill=0;" parent="1" source="QqzyqbhZqChSag3ZliqI-143" target="QqzyqbhZqChSag3ZliqI-126" edge="1">
          <mxGeometry width="50" height="50" relative="1" as="geometry">
            <mxPoint x="-950" y="330" as="sourcePoint" />
            <mxPoint x="-900" y="280" as="targetPoint" />
            <Array as="points">
              <mxPoint x="-830" y="185" />
              <mxPoint x="-830" y="125" />
            </Array>
          </mxGeometry>
        </mxCell>
        <mxCell id="QqzyqbhZqChSag3ZliqI-163" value="getTimezonesByStates" style="swimlane;whiteSpace=wrap;html=1;" parent="1" vertex="1">
          <mxGeometry x="-1090" y="600" width="175" height="140" as="geometry">
            <mxRectangle x="-1145" y="490" width="185" height="30" as="alternateBounds" />
          </mxGeometry>
        </mxCell>
        <mxCell id="QqzyqbhZqChSag3ZliqI-164" value="Stored Procedure&lt;div&gt;&lt;b&gt;&lt;u&gt;Input&lt;/u&gt;&lt;/b&gt;&lt;/div&gt;&lt;div&gt;stateID&lt;/div&gt;&lt;div&gt;&lt;b&gt;&lt;u&gt;Output&lt;/u&gt;&lt;/b&gt;&lt;/div&gt;&lt;div&gt;tz_shortname&lt;/div&gt;&lt;div&gt;tz_longname&lt;/div&gt;" style="text;html=1;align=center;verticalAlign=middle;resizable=0;points=[];autosize=1;strokeColor=none;fillColor=none;" parent="QqzyqbhZqChSag3ZliqI-163" vertex="1">
          <mxGeometry x="27.5" y="25" width="120" height="100" as="geometry" />
        </mxCell>
        <mxCell id="QqzyqbhZqChSag3ZliqI-165" value="" style="shape=flexArrow;endArrow=classic;html=1;rounded=0;" parent="1" edge="1">
          <mxGeometry width="50" height="50" relative="1" as="geometry">
            <mxPoint x="-940" y="290" as="sourcePoint" />
            <mxPoint x="-1010" y="570" as="targetPoint" />
          </mxGeometry>
        </mxCell>
        <mxCell id="QqzyqbhZqChSag3ZliqI-166" value="" style="shape=flexArrow;endArrow=classic;html=1;rounded=0;" parent="1" edge="1">
          <mxGeometry width="50" height="50" relative="1" as="geometry">
            <mxPoint x="-1180" y="350" as="sourcePoint" />
            <mxPoint x="-1040" y="580" as="targetPoint" />
          </mxGeometry>
        </mxCell>
        <mxCell id="QqzyqbhZqChSag3ZliqI-167" value="&lt;font style=&quot;font-size: 18px;&quot;&gt;States&lt;/font&gt;" style="rounded=0;whiteSpace=wrap;html=1;" parent="1" vertex="1">
          <mxGeometry x="-780" y="920" width="190" height="40" as="geometry" />
        </mxCell>
        <mxCell id="QqzyqbhZqChSag3ZliqI-168" value="&lt;font style=&quot;font-size: 14px;&quot;&gt;&lt;u style=&quot;font-weight: bold;&quot;&gt;Input&lt;/u&gt;&lt;br&gt;None&lt;br&gt;&lt;br&gt;&lt;/font&gt;" style="shape=process;whiteSpace=wrap;html=1;backgroundOutline=1;" parent="1" vertex="1">
          <mxGeometry x="-780" y="960" width="190" height="70" as="geometry" />
        </mxCell>
        <mxCell id="QqzyqbhZqChSag3ZliqI-169" value="" style="endArrow=classic;startArrow=classic;html=1;rounded=0;entryX=0.5;entryY=1;entryDx=0;entryDy=0;exitX=0.5;exitY=0;exitDx=0;exitDy=0;" parent="1" source="QqzyqbhZqChSag3ZliqI-167" edge="1">
          <mxGeometry width="50" height="50" relative="1" as="geometry">
            <mxPoint x="-685.59" y="853" as="sourcePoint" />
            <mxPoint x="-685.59" y="740" as="targetPoint" />
          </mxGeometry>
        </mxCell>
        <mxCell id="QqzyqbhZqChSag3ZliqI-174" value="&lt;font style=&quot;font-size: 18px;&quot;&gt;getTimezonesByStates&lt;/font&gt;" style="rounded=0;whiteSpace=wrap;html=1;" parent="1" vertex="1">
          <mxGeometry x="-1095" y="920" width="190" height="40" as="geometry" />
        </mxCell>
        <mxCell id="QqzyqbhZqChSag3ZliqI-175" value="&lt;font style=&quot;font-size: 14px;&quot;&gt;&lt;u style=&quot;font-weight: bold;&quot;&gt;Input&lt;/u&gt;&lt;br&gt;sendInfo containing&lt;br&gt;stateID&lt;br&gt;&lt;br&gt;&lt;/font&gt;" style="shape=process;whiteSpace=wrap;html=1;backgroundOutline=1;" parent="1" vertex="1">
          <mxGeometry x="-1095" y="960" width="190" height="70" as="geometry" />
        </mxCell>
        <mxCell id="QqzyqbhZqChSag3ZliqI-176" value="" style="endArrow=classic;startArrow=classic;html=1;rounded=0;entryX=0.5;entryY=1;entryDx=0;entryDy=0;exitX=0.5;exitY=0;exitDx=0;exitDy=0;" parent="1" source="QqzyqbhZqChSag3ZliqI-174" edge="1">
          <mxGeometry width="50" height="50" relative="1" as="geometry">
            <mxPoint x="-1001" y="920" as="sourcePoint" />
            <mxPoint x="-1001" y="740" as="targetPoint" />
          </mxGeometry>
        </mxCell>
        <mxCell id="QqzyqbhZqChSag3ZliqI-180" value="&lt;font style=&quot;font-size: 18px;&quot;&gt;getClients&lt;/font&gt;" style="rounded=0;whiteSpace=wrap;html=1;" parent="1" vertex="1">
          <mxGeometry x="-300" y="920" width="190" height="40" as="geometry" />
        </mxCell>
        <mxCell id="QqzyqbhZqChSag3ZliqI-181" value="&lt;font style=&quot;font-size: 14px;&quot;&gt;&lt;u style=&quot;font-weight: bold;&quot;&gt;Input&lt;/u&gt;&lt;br&gt;None&lt;br&gt;&lt;br&gt;&lt;/font&gt;" style="shape=process;whiteSpace=wrap;html=1;backgroundOutline=1;" parent="1" vertex="1">
          <mxGeometry x="-300" y="960" width="190" height="70" as="geometry" />
        </mxCell>
        <mxCell id="QqzyqbhZqChSag3ZliqI-182" value="" style="endArrow=classic;startArrow=classic;html=1;rounded=0;entryX=0.5;entryY=1;entryDx=0;entryDy=0;exitX=0.5;exitY=0;exitDx=0;exitDy=0;" parent="1" source="QqzyqbhZqChSag3ZliqI-180" edge="1">
          <mxGeometry width="50" height="50" relative="1" as="geometry">
            <mxPoint x="-170" y="900" as="sourcePoint" />
            <mxPoint x="-205.58999999999997" y="762.5" as="targetPoint" />
          </mxGeometry>
        </mxCell>
        <mxCell id="QqzyqbhZqChSag3ZliqI-186" value="&lt;font style=&quot;font-size: 18px;&quot;&gt;getPackages&lt;/font&gt;" style="rounded=0;whiteSpace=wrap;html=1;" parent="1" vertex="1">
          <mxGeometry x="1160" y="920" width="190" height="40" as="geometry" />
        </mxCell>
        <mxCell id="QqzyqbhZqChSag3ZliqI-187" value="&lt;font style=&quot;font-size: 14px;&quot;&gt;&lt;u style=&quot;font-weight: bold;&quot;&gt;Input&lt;/u&gt;&lt;br&gt;None&lt;br&gt;&lt;/font&gt;" style="shape=process;whiteSpace=wrap;html=1;backgroundOutline=1;" parent="1" vertex="1">
          <mxGeometry x="1160" y="960" width="190" height="70" as="geometry" />
        </mxCell>
        <mxCell id="QqzyqbhZqChSag3ZliqI-188" value="" style="endArrow=classic;startArrow=classic;html=1;rounded=0;entryX=0.5;entryY=1;entryDx=0;entryDy=0;exitX=0.5;exitY=0;exitDx=0;exitDy=0;" parent="1" source="QqzyqbhZqChSag3ZliqI-186" target="QqzyqbhZqChSag3ZliqI-72" edge="1">
          <mxGeometry width="50" height="50" relative="1" as="geometry">
            <mxPoint x="1120" y="890" as="sourcePoint" />
            <mxPoint x="1170" y="840" as="targetPoint" />
          </mxGeometry>
        </mxCell>
        <mxCell id="QqzyqbhZqChSag3ZliqI-193" value="" style="endArrow=classic;startArrow=classic;html=1;rounded=0;exitX=0.5;exitY=0;exitDx=0;exitDy=0;entryX=0.5;entryY=1;entryDx=0;entryDy=0;" parent="1" source="QqzyqbhZqChSag3ZliqI-190" target="QqzyqbhZqChSag3ZliqI-74" edge="1">
          <mxGeometry width="50" height="50" relative="1" as="geometry">
            <mxPoint x="1900" y="920" as="sourcePoint" />
            <mxPoint x="1760" y="760" as="targetPoint" />
          </mxGeometry>
        </mxCell>
        <mxCell id="QqzyqbhZqChSag3ZliqI-197" value="" style="endArrow=classic;startArrow=classic;html=1;rounded=0;exitX=0.5;exitY=0;exitDx=0;exitDy=0;entryX=0.5;entryY=1;entryDx=0;entryDy=0;" parent="1" source="QqzyqbhZqChSag3ZliqI-195" target="QqzyqbhZqChSag3ZliqI-82" edge="1">
          <mxGeometry width="50" height="50" relative="1" as="geometry">
            <mxPoint x="1775" y="930" as="sourcePoint" />
            <mxPoint x="1775" y="770" as="targetPoint" />
          </mxGeometry>
        </mxCell>
        <mxCell id="QqzyqbhZqChSag3ZliqI-199" value="" style="group" parent="1" vertex="1" connectable="0">
          <mxGeometry x="1980" y="920" width="190" height="110" as="geometry" />
        </mxCell>
        <mxCell id="QqzyqbhZqChSag3ZliqI-190" value="&lt;font style=&quot;font-size: 18px;&quot;&gt;getFilesByPackage&lt;/font&gt;" style="rounded=0;whiteSpace=wrap;html=1;" parent="QqzyqbhZqChSag3ZliqI-199" vertex="1">
          <mxGeometry width="190" height="40" as="geometry" />
        </mxCell>
        <mxCell id="QqzyqbhZqChSag3ZliqI-191" value="&lt;font style=&quot;font-size: 14px;&quot;&gt;&lt;u style=&quot;font-weight: bold;&quot;&gt;Input&lt;/u&gt;&lt;br&gt;sendInfo containing&lt;br&gt;package&lt;br&gt;&lt;/font&gt;" style="shape=process;whiteSpace=wrap;html=1;backgroundOutline=1;" parent="QqzyqbhZqChSag3ZliqI-199" vertex="1">
          <mxGeometry y="40" width="190" height="70" as="geometry" />
        </mxCell>
        <mxCell id="QqzyqbhZqChSag3ZliqI-200" value="" style="group" parent="1" vertex="1" connectable="0">
          <mxGeometry x="1760" y="920" width="210" height="110" as="geometry" />
        </mxCell>
        <mxCell id="QqzyqbhZqChSag3ZliqI-195" value="&lt;font style=&quot;font-size: 18px;&quot;&gt;deleteFilesFromPackage&lt;/font&gt;" style="rounded=0;whiteSpace=wrap;html=1;" parent="QqzyqbhZqChSag3ZliqI-200" vertex="1">
          <mxGeometry width="210" height="40" as="geometry" />
        </mxCell>
        <mxCell id="QqzyqbhZqChSag3ZliqI-196" value="&lt;font style=&quot;font-size: 14px;&quot;&gt;&lt;u style=&quot;font-weight: bold;&quot;&gt;Input&lt;/u&gt;&lt;br&gt;sendInfo containing&lt;br&gt;package&lt;br&gt;fileName&lt;br&gt;&lt;/font&gt;" style="shape=process;whiteSpace=wrap;html=1;backgroundOutline=1;" parent="QqzyqbhZqChSag3ZliqI-200" vertex="1">
          <mxGeometry x="10" y="40" width="190" height="70" as="geometry" />
        </mxCell>
        <mxCell id="QqzyqbhZqChSag3ZliqI-207" value="&lt;span style=&quot;font-size: 18px;&quot;&gt;deletePackage&lt;/span&gt;" style="rounded=0;whiteSpace=wrap;html=1;" parent="1" vertex="1">
          <mxGeometry x="1560" y="920" width="190" height="40" as="geometry" />
        </mxCell>
        <mxCell id="QqzyqbhZqChSag3ZliqI-208" value="&lt;font style=&quot;font-size: 14px;&quot;&gt;&lt;u style=&quot;font-weight: bold;&quot;&gt;Input&lt;/u&gt;&lt;br&gt;sendInfo containing&lt;br&gt;package&lt;br&gt;decision&lt;br&gt;&lt;/font&gt;" style="shape=process;whiteSpace=wrap;html=1;backgroundOutline=1;" parent="1" vertex="1">
          <mxGeometry x="1560" y="960" width="190" height="70" as="geometry" />
        </mxCell>
        <mxCell id="QqzyqbhZqChSag3ZliqI-209" value="" style="endArrow=classic;startArrow=classic;html=1;rounded=0;exitX=0.5;exitY=0;exitDx=0;exitDy=0;entryX=0.5;entryY=1;entryDx=0;entryDy=0;" parent="1" source="QqzyqbhZqChSag3ZliqI-207" target="QqzyqbhZqChSag3ZliqI-82" edge="1">
          <mxGeometry width="50" height="50" relative="1" as="geometry">
            <mxPoint x="1485" y="900" as="sourcePoint" />
            <mxPoint x="1210" y="830" as="targetPoint" />
          </mxGeometry>
        </mxCell>
        <mxCell id="QqzyqbhZqChSag3ZliqI-211" value="" style="endArrow=classic;startArrow=classic;html=1;rounded=0;entryX=0.5;entryY=1;entryDx=0;entryDy=0;exitX=0.5;exitY=0;exitDx=0;exitDy=0;" parent="1" source="QqzyqbhZqChSag3ZliqI-207" target="QqzyqbhZqChSag3ZliqI-79" edge="1">
          <mxGeometry width="50" height="50" relative="1" as="geometry">
            <mxPoint x="1380" y="880" as="sourcePoint" />
            <mxPoint x="1330" y="790" as="targetPoint" />
          </mxGeometry>
        </mxCell>
        <mxCell id="QqzyqbhZqChSag3ZliqI-213" value="&lt;span style=&quot;font-size: 18px;&quot;&gt;createPackage&lt;/span&gt;" style="rounded=0;whiteSpace=wrap;html=1;" parent="1" vertex="1">
          <mxGeometry x="1360" y="920" width="190" height="40" as="geometry" />
        </mxCell>
        <mxCell id="QqzyqbhZqChSag3ZliqI-214" value="&lt;font style=&quot;font-size: 14px;&quot;&gt;&lt;u style=&quot;font-weight: bold;&quot;&gt;Input&lt;/u&gt;&lt;br&gt;sendInfo containing&lt;br&gt;packageName&lt;br&gt;userName&lt;br&gt;&lt;/font&gt;" style="shape=process;whiteSpace=wrap;html=1;backgroundOutline=1;" parent="1" vertex="1">
          <mxGeometry x="1360" y="960" width="190" height="70" as="geometry" />
        </mxCell>
        <mxCell id="QqzyqbhZqChSag3ZliqI-215" value="" style="endArrow=classic;startArrow=classic;html=1;rounded=0;exitX=0.5;exitY=0;exitDx=0;exitDy=0;entryX=0.5;entryY=1;entryDx=0;entryDy=0;" parent="1" source="QqzyqbhZqChSag3ZliqI-213" target="QqzyqbhZqChSag3ZliqI-79" edge="1">
          <mxGeometry width="50" height="50" relative="1" as="geometry">
            <mxPoint x="1295" y="897.5" as="sourcePoint" />
            <mxPoint x="1110" y="817.5" as="targetPoint" />
          </mxGeometry>
        </mxCell>
        <mxCell id="QqzyqbhZqChSag3ZliqI-221" value="&lt;font style=&quot;font-size: 18px;&quot;&gt;createClient&lt;/font&gt;" style="rounded=0;whiteSpace=wrap;html=1;" parent="1" vertex="1">
          <mxGeometry x="-550" y="920" width="190" height="40" as="geometry" />
        </mxCell>
        <mxCell id="QqzyqbhZqChSag3ZliqI-222" value="&lt;font style=&quot;font-size: 14px;&quot;&gt;&lt;u style=&quot;font-weight: bold;&quot;&gt;Input&lt;/u&gt;&lt;br&gt;sendInfo containing&lt;br&gt;clientName&lt;br&gt;state&lt;br&gt;timezone&lt;br&gt;apiLocation&lt;br&gt;&lt;br&gt;&lt;/font&gt;" style="shape=process;whiteSpace=wrap;html=1;backgroundOutline=1;" parent="1" vertex="1">
          <mxGeometry x="-550" y="960" width="190" height="130" as="geometry" />
        </mxCell>
        <mxCell id="QqzyqbhZqChSag3ZliqI-223" value="" style="endArrow=classic;startArrow=classic;html=1;rounded=0;exitX=0.5;exitY=0;exitDx=0;exitDy=0;entryX=0.5;entryY=1;entryDx=0;entryDy=0;" parent="1" source="QqzyqbhZqChSag3ZliqI-221" target="QqzyqbhZqChSag3ZliqI-88" edge="1">
          <mxGeometry width="50" height="50" relative="1" as="geometry">
            <mxPoint x="-300.52" y="917.5" as="sourcePoint" />
            <mxPoint x="-460" y="810" as="targetPoint" />
          </mxGeometry>
        </mxCell>
        <mxCell id="QqzyqbhZqChSag3ZliqI-227" value="&lt;span style=&quot;font-size: 18px;&quot;&gt;GetAllPrograms&lt;/span&gt;" style="rounded=0;whiteSpace=wrap;html=1;" parent="1" vertex="1">
          <mxGeometry x="960" y="920" width="190" height="40" as="geometry" />
        </mxCell>
        <mxCell id="QqzyqbhZqChSag3ZliqI-228" value="&lt;font style=&quot;font-size: 14px;&quot;&gt;&lt;u style=&quot;font-weight: bold;&quot;&gt;Input&lt;/u&gt;&lt;br&gt;None&lt;br&gt;&lt;/font&gt;" style="shape=process;whiteSpace=wrap;html=1;backgroundOutline=1;" parent="1" vertex="1">
          <mxGeometry x="960" y="960" width="190" height="70" as="geometry" />
        </mxCell>
        <mxCell id="QqzyqbhZqChSag3ZliqI-229" value="" style="endArrow=classic;startArrow=classic;html=1;rounded=0;exitX=0.5;exitY=0;exitDx=0;exitDy=0;entryX=0.5;entryY=1;entryDx=0;entryDy=0;" parent="1" source="QqzyqbhZqChSag3ZliqI-227" target="QqzyqbhZqChSag3ZliqI-68" edge="1">
          <mxGeometry width="50" height="50" relative="1" as="geometry">
            <mxPoint x="1085" y="930" as="sourcePoint" />
            <mxPoint x="960" y="570" as="targetPoint" />
          </mxGeometry>
        </mxCell>
        <mxCell id="QqzyqbhZqChSag3ZliqI-230" value="deployProgramStatus" style="swimlane;whiteSpace=wrap;html=1;" parent="1" vertex="1">
          <mxGeometry x="360" y="597.5" width="210" height="180" as="geometry">
            <mxRectangle x="690" y="430" width="140" height="30" as="alternateBounds" />
          </mxGeometry>
        </mxCell>
        <mxCell id="QqzyqbhZqChSag3ZliqI-231" value="Stored Procedure&lt;div&gt;&lt;b&gt;&lt;u&gt;Input&lt;/u&gt;&lt;/b&gt;&lt;/div&gt;&lt;div&gt;Nothing&lt;/div&gt;&lt;div&gt;&lt;b&gt;&lt;u&gt;Output&lt;/u&gt;&lt;/b&gt;&lt;/div&gt;&lt;div&gt;clientName&lt;/div&gt;&lt;div&gt;programName&lt;/div&gt;&lt;div&gt;currentPackage&lt;/div&gt;&lt;div&gt;ProgramVersion&lt;/div&gt;&lt;div&gt;mdate&lt;/div&gt;&lt;div&gt;muser&lt;/div&gt;" style="text;html=1;align=center;verticalAlign=middle;resizable=0;points=[];autosize=1;strokeColor=none;fillColor=none;" parent="QqzyqbhZqChSag3ZliqI-230" vertex="1">
          <mxGeometry x="40" y="25" width="120" height="160" as="geometry" />
        </mxCell>
        <mxCell id="QqzyqbhZqChSag3ZliqI-233" value="" style="shape=flexArrow;endArrow=classic;html=1;rounded=0;" parent="1" edge="1">
          <mxGeometry width="50" height="50" relative="1" as="geometry">
            <mxPoint x="310" y="470" as="sourcePoint" />
            <mxPoint x="440" y="570" as="targetPoint" />
          </mxGeometry>
        </mxCell>
        <mxCell id="QqzyqbhZqChSag3ZliqI-234" value="" style="shape=flexArrow;endArrow=classic;html=1;rounded=0;" parent="1" edge="1">
          <mxGeometry width="50" height="50" relative="1" as="geometry">
            <mxPoint x="-120" y="420" as="sourcePoint" />
            <mxPoint x="420" y="590" as="targetPoint" />
          </mxGeometry>
        </mxCell>
        <mxCell id="QqzyqbhZqChSag3ZliqI-235" value="" style="shape=flexArrow;endArrow=classic;html=1;rounded=0;" parent="1" edge="1">
          <mxGeometry width="50" height="50" relative="1" as="geometry">
            <mxPoint x="790" y="320" as="sourcePoint" />
            <mxPoint x="460" y="580" as="targetPoint" />
          </mxGeometry>
        </mxCell>
        <mxCell id="QqzyqbhZqChSag3ZliqI-237" value="&lt;span style=&quot;font-size: 18px;&quot;&gt;GetProgramStatus&lt;/span&gt;" style="rounded=0;whiteSpace=wrap;html=1;" parent="1" vertex="1">
          <mxGeometry x="350" y="920" width="190" height="40" as="geometry" />
        </mxCell>
        <mxCell id="QqzyqbhZqChSag3ZliqI-238" value="&lt;font style=&quot;font-size: 14px;&quot;&gt;&lt;u style=&quot;font-weight: bold;&quot;&gt;Input&lt;/u&gt;&lt;br&gt;None&lt;br&gt;&lt;/font&gt;" style="shape=process;whiteSpace=wrap;html=1;backgroundOutline=1;" parent="1" vertex="1">
          <mxGeometry x="350" y="960" width="190" height="70" as="geometry" />
        </mxCell>
        <mxCell id="QqzyqbhZqChSag3ZliqI-239" value="" style="endArrow=classic;startArrow=classic;html=1;rounded=0;entryX=0.527;entryY=1.025;entryDx=0;entryDy=0;exitX=0.5;exitY=0;exitDx=0;exitDy=0;entryPerimeter=0;" parent="1" source="QqzyqbhZqChSag3ZliqI-237" target="QqzyqbhZqChSag3ZliqI-231" edge="1">
          <mxGeometry width="50" height="50" relative="1" as="geometry">
            <mxPoint x="464.38" y="905" as="sourcePoint" />
            <mxPoint x="464.38" y="800" as="targetPoint" />
          </mxGeometry>
        </mxCell>
        <mxCell id="QqzyqbhZqChSag3ZliqI-240" value="&lt;font style=&quot;font-size: 18px;&quot;&gt;associateProgram&lt;/font&gt;" style="rounded=0;whiteSpace=wrap;html=1;" parent="1" vertex="1">
          <mxGeometry x="760" y="920" width="190" height="40" as="geometry" />
        </mxCell>
        <mxCell id="QqzyqbhZqChSag3ZliqI-241" value="&lt;font style=&quot;font-size: 14px;&quot;&gt;&lt;u style=&quot;font-weight: bold;&quot;&gt;Input&lt;/u&gt;&lt;br&gt;sendInfo containing&lt;br&gt;programName&lt;br&gt;ClientID&lt;br&gt;programLocation&lt;br&gt;applicationPool&lt;br&gt;&lt;br&gt;&lt;/font&gt;" style="shape=process;whiteSpace=wrap;html=1;backgroundOutline=1;" parent="1" vertex="1">
          <mxGeometry x="760" y="960" width="190" height="130" as="geometry" />
        </mxCell>
        <mxCell id="QqzyqbhZqChSag3ZliqI-242" value="" style="endArrow=classic;startArrow=classic;html=1;rounded=0;exitX=0.5;exitY=0;exitDx=0;exitDy=0;entryX=0.5;entryY=1;entryDx=0;entryDy=0;" parent="1" source="QqzyqbhZqChSag3ZliqI-240" target="QqzyqbhZqChSag3ZliqI-86" edge="1">
          <mxGeometry width="50" height="50" relative="1" as="geometry">
            <mxPoint x="710" y="1030" as="sourcePoint" />
            <mxPoint x="690" y="840" as="targetPoint" />
          </mxGeometry>
        </mxCell>
        <mxCell id="QqzyqbhZqChSag3ZliqI-243" value="" style="endArrow=classic;startArrow=classic;html=1;rounded=0;entryX=0.5;entryY=1;entryDx=0;entryDy=0;exitX=0.5;exitY=0;exitDx=0;exitDy=0;" parent="1" source="QqzyqbhZqChSag3ZliqI-240" target="QqzyqbhZqChSag3ZliqI-84" edge="1">
          <mxGeometry width="50" height="50" relative="1" as="geometry">
            <mxPoint x="790" y="850" as="sourcePoint" />
            <mxPoint x="935" y="758" as="targetPoint" />
          </mxGeometry>
        </mxCell>
        <mxCell id="QqzyqbhZqChSag3ZliqI-86" value="UpdateDeployedPrograms" style="swimlane;whiteSpace=wrap;html=1;" parent="1" vertex="1">
          <mxGeometry x="820" y="597.5" width="210" height="150" as="geometry">
            <mxRectangle x="-300" y="462.5" width="140" height="30" as="alternateBounds" />
          </mxGeometry>
        </mxCell>
        <mxCell id="QqzyqbhZqChSag3ZliqI-87" value="Stored Procedure&lt;div&gt;&lt;b&gt;&lt;u&gt;Input&lt;/u&gt;&lt;/b&gt;&lt;/div&gt;&lt;div&gt;programName&lt;/div&gt;&lt;div&gt;&lt;b&gt;&lt;u&gt;Output&lt;/u&gt;&lt;/b&gt;&lt;/div&gt;&lt;div&gt;-1&lt;/div&gt;&lt;div&gt;Creates New Program Record&lt;/div&gt;&lt;div&gt;&lt;span style=&quot;background-color: initial;&quot;&gt;in DeployPrograms&lt;/span&gt;&lt;/div&gt;" style="text;html=1;align=center;verticalAlign=middle;resizable=0;points=[];autosize=1;strokeColor=none;fillColor=none;" parent="QqzyqbhZqChSag3ZliqI-86" vertex="1">
          <mxGeometry x="15" y="30" width="180" height="110" as="geometry" />
        </mxCell>
        <mxCell id="QqzyqbhZqChSag3ZliqI-245" value="&lt;span style=&quot;font-size: 18px;&quot;&gt;DeployMain&lt;/span&gt;" style="rounded=0;whiteSpace=wrap;html=1;" parent="1" vertex="1">
          <mxGeometry x="-70" y="920" width="190" height="40" as="geometry" />
        </mxCell>
        <mxCell id="QqzyqbhZqChSag3ZliqI-246" value="&lt;font style=&quot;font-size: 14px;&quot;&gt;&lt;u style=&quot;font-weight: bold;&quot;&gt;Input&lt;/u&gt;&lt;br&gt;ToKSendInfo containing&lt;br&gt;clientID&lt;br&gt;program&lt;br&gt;package&lt;br&gt;&lt;br&gt;&lt;/font&gt;" style="shape=process;whiteSpace=wrap;html=1;backgroundOutline=1;" parent="1" vertex="1">
          <mxGeometry x="-70" y="960" width="190" height="110" as="geometry" />
        </mxCell>
        <mxCell id="QqzyqbhZqChSag3ZliqI-247" value="" style="endArrow=classic;startArrow=classic;html=1;rounded=0;exitX=0.5;exitY=0;exitDx=0;exitDy=0;entryX=0.5;entryY=1;entryDx=0;entryDy=0;" parent="1" source="QqzyqbhZqChSag3ZliqI-245" target="QqzyqbhZqChSag3ZliqI-77" edge="1">
          <mxGeometry width="50" height="50" relative="1" as="geometry">
            <mxPoint x="-195" y="930" as="sourcePoint" />
            <mxPoint x="10" y="800" as="targetPoint" />
          </mxGeometry>
        </mxCell>
        <mxCell id="QqzyqbhZqChSag3ZliqI-248" value="" style="endArrow=classic;startArrow=classic;html=1;rounded=0;exitX=0.5;exitY=1;exitDx=0;exitDy=0;entryX=0.5;entryY=0;entryDx=0;entryDy=0;" parent="1" source="QqzyqbhZqChSag3ZliqI-70" target="QqzyqbhZqChSag3ZliqI-245" edge="1">
          <mxGeometry width="50" height="50" relative="1" as="geometry">
            <mxPoint x="5" y="930" as="sourcePoint" />
            <mxPoint x="15" y="787" as="targetPoint" />
          </mxGeometry>
        </mxCell>
        <mxCell id="QqzyqbhZqChSag3ZliqI-250" value="&lt;span style=&quot;font-size: 18px;&quot;&gt;DeployReceive&lt;/span&gt;" style="rounded=0;whiteSpace=wrap;html=1;" parent="1" vertex="1">
          <mxGeometry x="560" y="920" width="190" height="40" as="geometry" />
        </mxCell>
        <mxCell id="QqzyqbhZqChSag3ZliqI-251" value="&lt;font style=&quot;font-size: 14px;&quot;&gt;&lt;u style=&quot;font-weight: bold;&quot;&gt;Input&lt;/u&gt;&lt;br&gt;Request.Form.Files&lt;br&gt;Headings containing&lt;br&gt;mainFolder&lt;br&gt;BackupFolder&lt;br&gt;DeploySecret&lt;br&gt;AppPool&lt;br&gt;&lt;br&gt;&lt;/font&gt;" style="shape=process;whiteSpace=wrap;html=1;backgroundOutline=1;" parent="1" vertex="1">
          <mxGeometry x="560" y="960" width="190" height="140" as="geometry" />
        </mxCell>
        <mxCell id="QqzyqbhZqChSag3ZliqI-252" value="&lt;font style=&quot;font-size: 50px;&quot;&gt;Tables&lt;/font&gt;" style="text;html=1;align=center;verticalAlign=middle;whiteSpace=wrap;rounded=0;" parent="1" vertex="1">
          <mxGeometry x="-1610" y="185" width="60" height="30" as="geometry" />
        </mxCell>
        <mxCell id="QqzyqbhZqChSag3ZliqI-253" value="&lt;font style=&quot;font-size: 50px;&quot;&gt;Stored Procedures&lt;/font&gt;" style="text;html=1;align=center;verticalAlign=middle;whiteSpace=wrap;rounded=0;" parent="1" vertex="1">
          <mxGeometry x="-1690" y="630" width="470" height="30" as="geometry" />
        </mxCell>
        <mxCell id="QqzyqbhZqChSag3ZliqI-254" value="&lt;font style=&quot;font-size: 50px;&quot;&gt;API Calls&lt;/font&gt;" style="text;html=1;align=center;verticalAlign=middle;whiteSpace=wrap;rounded=0;" parent="1" vertex="1">
          <mxGeometry x="-1660" y="940" width="290" height="30" as="geometry" />
        </mxCell>
      </root>
    </mxGraphModel>
  </diagram>
</mxfile>
